<?xml version="1.0" standalone="yes"?>
<svg xmlns="http://www.w3.org/2000/svg" width="840" height="677">
<path style="fill:#f6f6f6; stroke:none;" d="M0 0L0 677L840 677L840 0L0 0z"/>
<path style="fill:#849ab1; stroke:none;" d="M433 40L434 41L433 40z"/>
<path style="fill:#0a4178; stroke:none;" d="M225 160C228.179 173.408 243.756 188.215 252.21 199C272.532 224.927 292.773 251.254 312 278C322.373 274.48 331.711 263.428 340 256.424C358.246 241.008 377.743 226.516 395 210L381 512C343.225 507.226 303.063 500.105 265 500L265 637L615 637L606.272 576L593 485L500 496C500.642 464.911 508.663 432.84 512.718 402C522.106 330.606 532.894 259.394 542.282 188C545.703 161.978 549.509 135.994 553.13 110C554.01 103.688 559.461 87.0173 555.933 81.51C553.355 77.4858 543.318 76.106 539 74.6667L494 59.6667L453 46C447.76 44.2534 440.584 40.313 435 40.7438C428.754 41.2258 421.343 47.5156 416 50.5787L375 74.1505C325.059 102.656 275.871 133.205 225 160z"/>
<path style="fill:#7e7f80; stroke:none;" d="M436 40L437 41L436 40z"/>
<path style="fill:#849ab1; stroke:none;" d="M437 40L438 41L437 40z"/>
<path style="fill:#9dbad6; stroke:none;" d="M438 40L439 41L438 40M431 41L432 42L431 41z"/>
<path style="fill:#7e7f80; stroke:none;" d="M439 41L440 42L439 41z"/>
<path style="fill:#9dbad6; stroke:none;" d="M440 41L441 42L440 41M429 42L430 43L429 42z"/>
<path style="fill:#7e7f80; stroke:none;" d="M430 42L431 43L430 42M442 42L443 43L442 42z"/>
<path style="fill:#9dbad6; stroke:none;" d="M443 42L444 43L443 42M427 43L428 44L427 43z"/>
<path style="fill:#7e7f80; stroke:none;" d="M428 43L429 44L428 43M445 43L446 44L445 43z"/>
<path style="fill:#9dbad6; stroke:none;" d="M446 43L447 44L446 43z"/>
<path style="fill:#849ab1; stroke:none;" d="M426 44L427 45L426 44z"/>
<path style="fill:#7e7f80; stroke:none;" d="M448 44L449 45L448 44z"/>
<path style="fill:#9dbad6; stroke:none;" d="M449 44L450 45L449 44M424 45L425 46L424 45z"/>
<path style="fill:#7e7f80; stroke:none;" d="M451 45L452 46L451 45z"/>
<path style="fill:#9dbad6; stroke:none;" d="M452 45L453 46L452 45M422 46L423 47L422 46z"/>
<path style="fill:#7e7f80; stroke:none;" d="M423 46L424 47L423 46M454 46L455 47L454 46z"/>
<path style="fill:#9dbad6; stroke:none;" d="M455 46L456 47L455 46M420 47L421 48L420 47z"/>
<path style="fill:#7e7f80; stroke:none;" d="M421 47L422 48L421 47M402 197L387 518L271 507L271 599C271 604.941 267.773 626.147 272.603 629.972C276.294 632.895 286.487 631 291 631L340 631L532 631L588 631C591.945 631 604.399 633.031 606.883 629.397C608.555 626.949 606.82 621.694 606.421 619C605.189 610.674 604.041 602.334 602.87 594C598.068 559.836 590.714 525.387 588 491C557.833 496.604 523.668 502.746 493 503C493.259 471.666 501.632 439.075 505.718 408C514.841 338.618 524.657 269.294 534.424 200C538.323 172.337 542.206 144.676 546 117C547.041 109.403 552.434 93.3536 549.382 86.2778C547.669 82.3055 539.686 81.2286 536 80L497 67L455 53C449.372 51.1238 442 47.1246 436 47.4089C424.249 47.9658 407.183 62.7408 397 68.5787C366.006 86.3477 335.028 104.139 304 121.85C286.639 131.759 269.378 141.839 252 151.719C248.091 153.942 235.797 158.426 234.882 163.213C233.776 169 246.026 180.536 249.373 185C264.672 205.399 279.92 225.875 295.576 246C299.059 250.478 308.8 268.776 315.039 268.083C322.849 267.215 334.109 253.402 340 248.424C360.145 231.403 380.018 211.541 402 197M457 47L458 48L457 47z"/>
<path style="fill:#9dbad6; stroke:none;" d="M458 47L459 48L458 47z"/>
<path style="fill:#849ab1; stroke:none;" d="M419 48L420 49L419 48z"/>
<path style="fill:#7e7f80; stroke:none;" d="M460 48L461 49L460 48z"/>
<path style="fill:#849ab1; stroke:none;" d="M461 48L462 49L461 48z"/>
<path style="fill:#9dbad6; stroke:none;" d="M462 48L463 49L462 48M417 49L418 50L417 49z"/>
<path style="fill:#7e7f80; stroke:none;" d="M463 49L464 50L463 49z"/>
<path style="fill:#849ab1; stroke:none;" d="M464 49L465 50L464 49z"/>
<path style="fill:#9dbad6; stroke:none;" d="M465 49L466 50L465 49M415 50L416 51L415 50z"/>
<path style="fill:#7e7f80; stroke:none;" d="M416 50L417 51L416 50M466 50L467 51L466 50z"/>
<path style="fill:#849ab1; stroke:none;" d="M467 50L468 51L467 50z"/>
<path style="fill:#9dbad6; stroke:none;" d="M468 50L469 51L468 50z"/>
<path style="fill:#849ab1; stroke:none;" d="M414 51L415 52L414 51z"/>
<path style="fill:#7e7f80; stroke:none;" d="M469 51L470 52L469 51z"/>
<path style="fill:#849ab1; stroke:none;" d="M470 51L471 52L470 51z"/>
<path style="fill:#9dbad6; stroke:none;" d="M471 51L472 52L471 51z"/>
<path style="fill:#849ab1; stroke:none;" d="M412 52L413 53L412 52z"/>
<path style="fill:#7e7f80; stroke:none;" d="M472 52L473 53L472 52z"/>
<path style="fill:#849ab1; stroke:none;" d="M473 52L474 53L473 52z"/>
<path style="fill:#9dbad6; stroke:none;" d="M474 52L475 53L474 52M410 53L411 54L410 53z"/>
<path style="fill:#7e7f80; stroke:none;" d="M475 53L476 54L475 53z"/>
<path style="fill:#849ab1; stroke:none;" d="M476 53L477 54L476 53z"/>
<path style="fill:#9dbad6; stroke:none;" d="M477 53L478 54L477 53M408 54L409 55L408 54z"/>
<path style="fill:#7e7f80; stroke:none;" d="M409 54L410 55L409 54M478 54L479 55L478 54z"/>
<path style="fill:#849ab1; stroke:none;" d="M479 54L480 55L479 54M407 55L408 56L407 55z"/>
<path style="fill:#7e7f80; stroke:none;" d="M481 55L482 56L481 55z"/>
<path style="fill:#9dbad6; stroke:none;" d="M482 55L483 56L482 55z"/>
<path style="fill:#849ab1; stroke:none;" d="M405 56L406 57L405 56z"/>
<path style="fill:#7e7f80; stroke:none;" d="M484 56L485 57L484 56z"/>
<path style="fill:#9dbad6; stroke:none;" d="M485 56L486 57L485 56M403 57L404 58L403 57z"/>
<path style="fill:#7e7f80; stroke:none;" d="M404 57L405 58L404 57M487 57L488 58L487 57z"/>
<path style="fill:#9dbad6; stroke:none;" d="M488 57L489 58L488 57M401 58L402 59L401 58z"/>
<path style="fill:#7e7f80; stroke:none;" d="M402 58L403 59L402 58M490 58L491 59L490 58z"/>
<path style="fill:#9dbad6; stroke:none;" d="M491 58L492 59L491 58M399 59L400 60L399 59z"/>
<path style="fill:#849ab1; stroke:none;" d="M400 59L401 60L400 59z"/>
<path style="fill:#7e7f80; stroke:none;" d="M493 59L494 60L493 59z"/>
<path style="fill:#9dbad6; stroke:none;" d="M494 59L495 60L494 59M398 60L399 61L398 60z"/>
<path style="fill:#7e7f80; stroke:none;" d="M496 60L497 61L496 60z"/>
<path style="fill:#849ab1; stroke:none;" d="M497 60L498 61L497 60z"/>
<path style="fill:#9dbad6; stroke:none;" d="M498 60L499 61L498 60M396 61L397 62L396 61z"/>
<path style="fill:#7e7f80; stroke:none;" d="M397 61L398 62L397 61M499 61L500 62L499 61z"/>
<path style="fill:#9dbad6; stroke:none;" d="M500 61L501 62L500 61M394 62L395 63L394 62z"/>
<path style="fill:#7e7f80; stroke:none;" d="M395 62L396 63L395 62M502 62L503 63L502 62z"/>
<path style="fill:#9dbad6; stroke:none;" d="M503 62L504 63L503 62z"/>
<path style="fill:#849ab1; stroke:none;" d="M393 63L394 64L393 63z"/>
<path style="fill:#7e7f80; stroke:none;" d="M505 63L506 64L505 63z"/>
<path style="fill:#9dbad6; stroke:none;" d="M506 63L507 64L506 63M391 64L392 65L391 64z"/>
<path style="fill:#7e7f80; stroke:none;" d="M508 64L509 65L508 64z"/>
<path style="fill:#9dbad6; stroke:none;" d="M509 64L510 65L509 64M389 65L390 66L389 65z"/>
<path style="fill:#7e7f80; stroke:none;" d="M390 65L391 66L390 65M511 65L512 66L511 65z"/>
<path style="fill:#9dbad6; stroke:none;" d="M512 65L513 66L512 65z"/>
<path style="fill:#7e7f80; stroke:none;" d="M388 66L389 67L388 66M514 66L515 67L514 66z"/>
<path style="fill:#9dbad6; stroke:none;" d="M515 66L516 67L515 66z"/>
<path style="fill:#849ab1; stroke:none;" d="M386 67L387 68L386 67z"/>
<path style="fill:#7e7f80; stroke:none;" d="M517 67L518 68L517 67z"/>
<path style="fill:#9dbad6; stroke:none;" d="M518 67L519 68L518 67M384 68L385 69L384 68z"/>
<path style="fill:#7e7f80; stroke:none;" d="M520 68L521 69L520 68z"/>
<path style="fill:#849ab1; stroke:none;" d="M521 68L522 69L521 68z"/>
<path style="fill:#9dbad6; stroke:none;" d="M522 68L523 69L522 68M382 69L383 70L382 69z"/>
<path style="fill:#7e7f80; stroke:none;" d="M383 69L384 70L383 69M523 69L524 70L523 69z"/>
<path style="fill:#849ab1; stroke:none;" d="M524 69L525 70L524 69z"/>
<path style="fill:#9dbad6; stroke:none;" d="M525 69L526 70L525 69z"/>
<path style="fill:#7e7f80; stroke:none;" d="M381 70L382 71L381 70M526 70L527 71L526 70z"/>
<path style="fill:#849ab1; stroke:none;" d="M527 70L528 71L527 70z"/>
<path style="fill:#9dbad6; stroke:none;" d="M528 70L529 71L528 70z"/>
<path style="fill:#849ab1; stroke:none;" d="M379 71L380 72L379 71z"/>
<path style="fill:#7e7f80; stroke:none;" d="M529 71L530 72L529 71z"/>
<path style="fill:#849ab1; stroke:none;" d="M530 71L531 72L530 71z"/>
<path style="fill:#9dbad6; stroke:none;" d="M531 71L532 72L531 71z"/>
<path style="fill:#849ab1; stroke:none;" d="M377 72L378 73L377 72z"/>
<path style="fill:#7e7f80; stroke:none;" d="M532 72L533 73L532 72z"/>
<path style="fill:#849ab1; stroke:none;" d="M533 72L534 73L533 72z"/>
<path style="fill:#9dbad6; stroke:none;" d="M534 72L535 73L534 72M375 73L376 74L375 73z"/>
<path style="fill:#7e7f80; stroke:none;" d="M376 73L377 74L376 73M535 73L536 74L535 73z"/>
<path style="fill:#849ab1; stroke:none;" d="M536 73L537 74L536 73z"/>
<path style="fill:#9dbad6; stroke:none;" d="M537 73L538 74L537 73M373 74L374 75L373 74z"/>
<path style="fill:#7e7f80; stroke:none;" d="M374 74L375 75L374 74M538 74L539 75L538 74z"/>
<path style="fill:#849ab1; stroke:none;" d="M539 74L540 75L539 74M372 75L373 76L372 75z"/>
<path style="fill:#7e7f80; stroke:none;" d="M541 75L542 76L541 75z"/>
<path style="fill:#9dbad6; stroke:none;" d="M542 75L543 76L542 75M370 76L371 77L370 76z"/>
<path style="fill:#7e7f80; stroke:none;" d="M544 76L545 77L544 76z"/>
<path style="fill:#9dbad6; stroke:none;" d="M545 76L546 77L545 76M368 77L369 78L368 77z"/>
<path style="fill:#7e7f80; stroke:none;" d="M369 77L370 78L369 77M547 77L548 78L547 77z"/>
<path style="fill:#9dbad6; stroke:none;" d="M548 77L549 78L548 77M366 78L367 79L366 78z"/>
<path style="fill:#7e7f80; stroke:none;" d="M367 78L368 79L367 78M550 78L551 79L550 78z"/>
<path style="fill:#9dbad6; stroke:none;" d="M551 78L552 79L551 78z"/>
<path style="fill:#849ab1; stroke:none;" d="M365 79L366 80L365 79z"/>
<path style="fill:#7e7f80; stroke:none;" d="M553 79L554 80L553 79z"/>
<path style="fill:#9dbad6; stroke:none;" d="M554 79L555 80L554 79M363 80L364 81L363 80z"/>
<path style="fill:#7e7f80; stroke:none;" d="M556 80L557 81L556 80z"/>
<path style="fill:#9dbad6; stroke:none;" d="M557 80L557 84L558 84L557 80M361 81L362 82L361 81z"/>
<path style="fill:#7e7f80; stroke:none;" d="M362 81L363 82L362 81z"/>
<path style="fill:#9dbad6; stroke:none;" d="M359 82L360 83L359 82z"/>
<path style="fill:#7e7f80; stroke:none;" d="M360 82L361 83L360 82z"/>
<path style="fill:#849ab1; stroke:none;" d="M358 83L359 84L358 83z"/>
<path style="fill:#9dbad6; stroke:none;" d="M356 84L357 85L356 84M354 85L355 86L354 85z"/>
<path style="fill:#7e7f80; stroke:none;" d="M355 85L356 86L355 85M556.333 85.6667L556.667 86.3333L556.333 85.6667z"/>
<path style="fill:#9dbad6; stroke:none;" d="M352 86L353 87L352 86z"/>
<path style="fill:#7e7f80; stroke:none;" d="M353 86L354 87L353 86z"/>
<path style="fill:#849ab1; stroke:none;" d="M351 87L352 88L351 87M556.333 87.6667L556.667 88.3333L556.333 87.6667z"/>
<path style="fill:#9dbad6; stroke:none;" d="M349 88L350 89L349 88M347 89L348 90L347 89z"/>
<path style="fill:#7e7f80; stroke:none;" d="M348 89L349 90L348 89z"/>
<path style="fill:#9dbad6; stroke:none;" d="M556.333 89.6667L556.667 90.3333L556.333 89.6667M345 90L346 91L345 90z"/>
<path style="fill:#7e7f80; stroke:none;" d="M346 90L347 91L346 90z"/>
<path style="fill:#849ab1; stroke:none;" d="M344 91L345 92L344 91z"/>
<path style="fill:#9dbad6; stroke:none;" d="M342 92L343 93L342 92M340 93L341 94L340 93z"/>
<path style="fill:#7e7f80; stroke:none;" d="M341 93L342 94L341 93M555 93L556 94L555 93z"/>
<path style="fill:#849ab1; stroke:none;" d="M339 94L340 95L339 94M555.333 94.6667L555.667 95.3333L555.333 94.6667M337 95L338 96L337 95z"/>
<path style="fill:#9dbad6; stroke:none;" d="M335 96L336 97L335 96M555.333 96.6667L555.667 97.3333L555.333 96.6667M333 97L334 98L333 97z"/>
<path style="fill:#7e7f80; stroke:none;" d="M334 97L335 98L334 97z"/>
<path style="fill:#849ab1; stroke:none;" d="M332 98L333 99L332 98z"/>
<path style="fill:#9dbad6; stroke:none;" d="M330 99L331 100L330 99M328 100L329 101L328 100z"/>
<path style="fill:#7e7f80; stroke:none;" d="M554 100L555 101L554 100z"/>
<path style="fill:#9dbad6; stroke:none;" d="M326 101L327 102L326 101z"/>
<path style="fill:#7e7f80; stroke:none;" d="M327 101L328 102L327 101z"/>
<path style="fill:#849ab1; stroke:none;" d="M554.333 101.667L554.667 102.333L554.333 101.667M325 102L326 103L325 102M323 103L324 104L323 103z"/>
<path style="fill:#9dbad6; stroke:none;" d="M554.333 103.667L554.667 104.333L554.333 103.667M321 104L322 105L321 104z"/>
<path style="fill:#7e7f80; stroke:none;" d="M320 105L321 106L320 105z"/>
<path style="fill:#849ab1; stroke:none;" d="M318 106L319 107L318 106z"/>
<path style="fill:#9dbad6; stroke:none;" d="M316 107L317 108L316 107z"/>
<path style="fill:#7e7f80; stroke:none;" d="M553 107L554 108L553 107z"/>
<path style="fill:#9dbad6; stroke:none;" d="M314 108L315 109L314 108z"/>
<path style="fill:#7e7f80; stroke:none;" d="M315 108L316 109L315 108z"/>
<path style="fill:#849ab1; stroke:none;" d="M553.333 108.667L553.667 109.333L553.333 108.667z"/>
<path style="fill:#7e7f80; stroke:none;" d="M313 109L314 110L313 109z"/>
<path style="fill:#849ab1; stroke:none;" d="M311 110L312 111L311 110z"/>
<path style="fill:#9dbad6; stroke:none;" d="M553.333 110.667L553.667 111.333L553.333 110.667M309 111L310 112L309 111M307 112L308 113L307 112z"/>
<path style="fill:#7e7f80; stroke:none;" d="M308 112L309 113L308 112M306 113L307 114L306 113z"/>
<path style="fill:#849ab1; stroke:none;" d="M304 114L305 115L304 114z"/>
<path style="fill:#7e7f80; stroke:none;" d="M552.333 114.667L552.667 115.333L552.333 114.667z"/>
<path style="fill:#9dbad6; stroke:none;" d="M302 115L303 116L302 115M300 116L301 117L300 116z"/>
<path style="fill:#7e7f80; stroke:none;" d="M301 116L302 117L301 116z"/>
<path style="fill:#849ab1; stroke:none;" d="M552 116L553 117L552 116z"/>
<path style="fill:#9dbad6; stroke:none;" d="M298 117L299 118L298 117z"/>
<path style="fill:#7e7f80; stroke:none;" d="M299 117L300 118L299 117z"/>
<path style="fill:#9dbad6; stroke:none;" d="M552.333 117.667L552.667 118.333L552.333 117.667z"/>
<path style="fill:#849ab1; stroke:none;" d="M297 118L298 119L297 118z"/>
<path style="fill:#9dbad6; stroke:none;" d="M295 119L296 120L295 119M293 120L294 121L293 120z"/>
<path style="fill:#7e7f80; stroke:none;" d="M294 120L295 121L294 120M292 121L293 122L292 121z"/>
<path style="fill:#849ab1; stroke:none;" d="M290 122L291 123L290 122z"/>
<path style="fill:#7e7f80; stroke:none;" d="M551 122L552 123L551 122z"/>
<path style="fill:#9dbad6; stroke:none;" d="M288 123L289 124L288 123z"/>
<path style="fill:#849ab1; stroke:none;" d="M551.333 123.667L551.667 124.333L551.333 123.667z"/>
<path style="fill:#9dbad6; stroke:none;" d="M286 124L287 125L286 124z"/>
<path style="fill:#7e7f80; stroke:none;" d="M287 124L288 125L287 124M285 125L286 126L285 125z"/>
<path style="fill:#9dbad6; stroke:none;" d="M551.333 125.667L551.667 126.333L551.333 125.667z"/>
<path style="fill:#849ab1; stroke:none;" d="M283 126L284 127L283 126z"/>
<path style="fill:#9dbad6; stroke:none;" d="M281 127L282 128L281 127M279 128L280 129L279 128z"/>
<path style="fill:#7e7f80; stroke:none;" d="M280 128L281 129L280 128z"/>
<path style="fill:#9dbad6; stroke:none;" d="M277 129L278 130L277 129z"/>
<path style="fill:#7e7f80; stroke:none;" d="M278 129L279 130L278 129M550 129L551 130L550 129z"/>
<path style="fill:#849ab1; stroke:none;" d="M276 130L277 131L276 130M550.333 130.667L550.667 131.333L550.333 130.667z"/>
<path style="fill:#9dbad6; stroke:none;" d="M274 131L275 132L274 131M272 132L273 133L272 132z"/>
<path style="fill:#7e7f80; stroke:none;" d="M273 132L274 133L273 132z"/>
<path style="fill:#9dbad6; stroke:none;" d="M550.333 132.667L550.667 133.333L550.333 132.667M270 133L271 134L270 133z"/>
<path style="fill:#7e7f80; stroke:none;" d="M271 133L272 134L271 133z"/>
<path style="fill:#849ab1; stroke:none;" d="M269 134L270 135L269 134z"/>
<path style="fill:#9dbad6; stroke:none;" d="M267 135L268 136L267 135M265 136L266 137L265 136z"/>
<path style="fill:#7e7f80; stroke:none;" d="M266 136L267 137L266 136M549.333 136.667L549.667 137.333L549.333 136.667z"/>
<path style="fill:#9dbad6; stroke:none;" d="M263 137L264 138L263 137z"/>
<path style="fill:#7e7f80; stroke:none;" d="M264 137L265 138L264 137z"/>
<path style="fill:#849ab1; stroke:none;" d="M262 138L263 139L262 138M549 138L550 139L549 138z"/>
<path style="fill:#9dbad6; stroke:none;" d="M260 139L261 140L260 139M549.333 139.667L549.667 140.333L549.333 139.667M258 140L259 141L258 140z"/>
<path style="fill:#7e7f80; stroke:none;" d="M259 140L260 141L259 140z"/>
<path style="fill:#849ab1; stroke:none;" d="M257 141L258 142L257 141M255 142L256 143L255 142z"/>
<path style="fill:#9dbad6; stroke:none;" d="M253 143L254 144L253 143z"/>
<path style="fill:#7e7f80; stroke:none;" d="M548.333 143.667L548.667 144.333L548.333 143.667z"/>
<path style="fill:#9dbad6; stroke:none;" d="M251 144L252 145L251 144z"/>
<path style="fill:#7e7f80; stroke:none;" d="M252 144L253 145L252 144z"/>
<path style="fill:#849ab1; stroke:none;" d="M250 145L251 146L250 145M548 145L549 146L548 145M248 146L249 147L248 146z"/>
<path style="fill:#9dbad6; stroke:none;" d="M548.333 146.667L548.667 147.333L548.333 146.667M246 147L247 148L246 147z"/>
<path style="fill:#7e7f80; stroke:none;" d="M247 147L248 148L247 147z"/>
<path style="fill:#9dbad6; stroke:none;" d="M244 148L245 149L244 148z"/>
<path style="fill:#7e7f80; stroke:none;" d="M245 148L246 149L245 148z"/>
<path style="fill:#849ab1; stroke:none;" d="M243 149L244 150L243 149M241 150L242 151L241 150z"/>
<path style="fill:#7e7f80; stroke:none;" d="M547.333 150.667L547.667 151.333L547.333 150.667z"/>
<path style="fill:#9dbad6; stroke:none;" d="M239 151L240 152L239 151z"/>
<path style="fill:#7e7f80; stroke:none;" d="M240 151L241 152L240 151M238 152L239 153L238 152z"/>
<path style="fill:#849ab1; stroke:none;" d="M547 152L548 153L547 152M236 153L237 154L236 153z"/>
<path style="fill:#9dbad6; stroke:none;" d="M547.333 153.667L547.667 154.333L547.333 153.667M234 154L235 155L234 154M232 155L233 156L232 155z"/>
<path style="fill:#7e7f80; stroke:none;" d="M233 155L234 156L233 155M231 156L232 157L231 156z"/>
<path style="fill:#849ab1; stroke:none;" d="M229 157L230 158L229 157z"/>
<path style="fill:#7e7f80; stroke:none;" d="M546.333 157.667L546.667 158.333L546.333 157.667z"/>
<path style="fill:#9dbad6; stroke:none;" d="M227 158L228 159L227 158M225 159L226 160L225 159z"/>
<path style="fill:#7e7f80; stroke:none;" d="M226 159L227 160L226 159z"/>
<path style="fill:#849ab1; stroke:none;" d="M546.333 159.667L546.667 160.333L546.333 159.667z"/>
<path style="fill:#9dbad6; stroke:none;" d="M546.333 161.667L546.667 162.333L546.333 161.667z"/>
<path style="fill:#7e7f80; stroke:none;" d="M225 163L226 164L225 163M226 164L227 165L226 164z"/>
<path style="fill:#9dbad6; stroke:none;" d="M226 165L227 166L226 165z"/>
<path style="fill:#7e7f80; stroke:none;" d="M545 165L546 166L545 165z"/>
<path style="fill:#9dbad6; stroke:none;" d="M227 166L228 167L227 166z"/>
<path style="fill:#849ab1; stroke:none;" d="M545.333 166.667L545.667 167.333L545.333 166.667M228 167L229 168L228 167z"/>
<path style="fill:#7e7f80; stroke:none;" d="M229 168L230 169L229 168z"/>
<path style="fill:#9dbad6; stroke:none;" d="M545.333 168.667L545.667 169.333L545.333 168.667M229 169L230 170L229 169M230 170L231 171L230 170z"/>
<path style="fill:#849ab1; stroke:none;" d="M231 171L232 172L231 171z"/>
<path style="fill:#7e7f80; stroke:none;" d="M232 172L233 173L232 172M544.333 172.667L544.667 173.333L544.333 172.667z"/>
<path style="fill:#9dbad6; stroke:none;" d="M232 173L233 174L232 173M233 174L234 175L233 174z"/>
<path style="fill:#849ab1; stroke:none;" d="M544 174L545 175L544 174M234 175L235 176L234 175z"/>
<path style="fill:#9dbad6; stroke:none;" d="M544.333 175.667L544.667 176.333L544.333 175.667z"/>
<path style="fill:#7e7f80; stroke:none;" d="M235 176L236 177L235 176z"/>
<path style="fill:#9dbad6; stroke:none;" d="M235 177L236 178L235 177M236 178L237 179L236 178z"/>
<path style="fill:#849ab1; stroke:none;" d="M237 179L238 180L237 179z"/>
<path style="fill:#7e7f80; stroke:none;" d="M543.333 179.667L543.667 180.333L543.333 179.667M238 180L239 181L238 180z"/>
<path style="fill:#849ab1; stroke:none;" d="M543 181L544 182L543 181z"/>
<path style="fill:#9dbad6; stroke:none;" d="M239 182L240 183L239 182M543.333 182.667L543.667 183.333L543.333 182.667z"/>
<path style="fill:#849ab1; stroke:none;" d="M240 183L241 184L240 183z"/>
<path style="fill:#7e7f80; stroke:none;" d="M241 184L242 185L241 184z"/>
<path style="fill:#9dbad6; stroke:none;" d="M241 185L242 186L241 185M242 186L243 187L242 186z"/>
<path style="fill:#7e7f80; stroke:none;" d="M542.333 186.667L542.667 187.333L542.333 186.667z"/>
<path style="fill:#849ab1; stroke:none;" d="M243 187L244 188L243 187z"/>
<path style="fill:#7e7f80; stroke:none;" d="M244 188L245 189L244 188z"/>
<path style="fill:#849ab1; stroke:none;" d="M542 188L543 189L542 188z"/>
<path style="fill:#9dbad6; stroke:none;" d="M244 189L245 190L244 189M542.333 189.667L542.667 190.333L542.333 189.667M245 190L246 191L245 190z"/>
<path style="fill:#849ab1; stroke:none;" d="M246 191L247 192L246 191z"/>
<path style="fill:#7e7f80; stroke:none;" d="M247 192L248 193L247 192z"/>
<path style="fill:#9dbad6; stroke:none;" d="M248 194L249 195L248 194z"/>
<path style="fill:#7e7f80; stroke:none;" d="M541 194L542 195L541 194z"/>
<path style="fill:#849ab1; stroke:none;" d="M249 195L250 196L249 195M541 195L542 196L541 195z"/>
<path style="fill:#7e7f80; stroke:none;" d="M250 196L251 197L250 196z"/>
<path style="fill:#9dbad6; stroke:none;" d="M541.333 196.667L541.667 197.333L541.333 196.667M251 198L252 199L251 198M252 199L253 200L252 199z"/>
<path style="fill:#849ab1; stroke:none;" d="M253 200L254 201L253 200z"/>
<path style="fill:#7e7f80; stroke:none;" d="M254 201L255 202L254 201M540.333 201.667L540.667 202.333L540.333 201.667z"/>
<path style="fill:#9dbad6; stroke:none;" d="M254 202L255 203L254 202M255 203L256 204L255 203z"/>
<path style="fill:#849ab1; stroke:none;" d="M540 203L541 204L540 203M256 204L257 205L256 204z"/>
<path style="fill:#9dbad6; stroke:none;" d="M540.333 204.667L540.667 205.333L540.333 204.667z"/>
<path style="fill:#7e7f80; stroke:none;" d="M257 205L258 206L257 205z"/>
<path style="fill:#9dbad6; stroke:none;" d="M258 207L259 208L258 207z"/>
<path style="fill:#849ab1; stroke:none;" d="M259 208L260 209L259 208z"/>
<path style="fill:#7e7f80; stroke:none;" d="M539 208L540 209L539 208M260 209L261 210L260 209z"/>
<path style="fill:#849ab1; stroke:none;" d="M539.333 209.667L539.667 210.333L539.333 209.667z"/>
<path style="fill:#9dbad6; stroke:none;" d="M260 210L261 211L260 210z"/>
<path style="fill:#7e7f80; stroke:none;" d="M394 210L395 211L394 210z"/>
<path style="fill:#9dbad6; stroke:none;" d="M261 211L262 212L261 211z"/>
<path style="fill:#849ab1; stroke:none;" d="M393 211L394 212L393 211z"/>
<path style="fill:#9dbad6; stroke:none;" d="M394 211L395 212L394 211M539.333 211.667L539.667 212.333L539.333 211.667z"/>
<path style="fill:#849ab1; stroke:none;" d="M262 212L263 213L262 212M392 212L393 213L392 212z"/>
<path style="fill:#7e7f80; stroke:none;" d="M263 213L264 214L263 213z"/>
<path style="fill:#9dbad6; stroke:none;" d="M391 213L392 214L391 213M263 214L264 215L263 214M390 214L391 215L390 214M264 215L265 216L264 215z"/>
<path style="fill:#7e7f80; stroke:none;" d="M388 215L389 216L388 215z"/>
<path style="fill:#9dbad6; stroke:none;" d="M389 215L390 216L389 215M394 215L394 222L395 222L394 215z"/>
<path style="fill:#7e7f80; stroke:none;" d="M538.333 215.667L538.667 216.333L538.333 215.667z"/>
<path style="fill:#849ab1; stroke:none;" d="M265 216L266 217L265 216z"/>
<path style="fill:#7e7f80; stroke:none;" d="M387 216L388 217L387 216M266 217L267 218L266 217z"/>
<path style="fill:#849ab1; stroke:none;" d="M386 217L387 218L386 217M538 217L539 218L538 217z"/>
<path style="fill:#9dbad6; stroke:none;" d="M266 218L267 219L266 218M385 218L386 219L385 218M538.333 218.667L538.667 219.333L538.333 218.667M267 219L268 220L267 219M384 219L385 220L384 219z"/>
<path style="fill:#849ab1; stroke:none;" d="M268 220L269 221L268 220z"/>
<path style="fill:#7e7f80; stroke:none;" d="M382 220L383 221L382 220M269 221L270 222L269 221M381 221L382 222L381 221z"/>
<path style="fill:#849ab1; stroke:none;" d="M380 222L381 223L380 222M394 222L394 226L395 226L394 222z"/>
<path style="fill:#7e7f80; stroke:none;" d="M537.333 222.667L537.667 223.333L537.333 222.667z"/>
<path style="fill:#9dbad6; stroke:none;" d="M270 223L271 224L270 223M379 223L380 224L379 223z"/>
<path style="fill:#849ab1; stroke:none;" d="M271 224L272 225L271 224z"/>
<path style="fill:#9dbad6; stroke:none;" d="M378 224L379 225L378 224z"/>
<path style="fill:#849ab1; stroke:none;" d="M537.333 224.667L537.667 225.333L537.333 224.667z"/>
<path style="fill:#7e7f80; stroke:none;" d="M272 225L273 226L272 225M376 225L377 226L376 225z"/>
<path style="fill:#9dbad6; stroke:none;" d="M377 225L378 226L377 225z"/>
<path style="fill:#7e7f80; stroke:none;" d="M375 226L376 227L375 226M394 226L394 230L395 230L394 226z"/>
<path style="fill:#9dbad6; stroke:none;" d="M537.333 226.667L537.667 227.333L537.333 226.667M273 227L274 228L273 227z"/>
<path style="fill:#849ab1; stroke:none;" d="M374 227L375 228L374 227z"/>
<path style="fill:#9dbad6; stroke:none;" d="M274 228L275 229L274 228M373 228L374 229L373 228z"/>
<path style="fill:#7e7f80; stroke:none;" d="M275 229L276 230L275 229z"/>
<path style="fill:#9dbad6; stroke:none;" d="M372 229L373 230L372 229z"/>
<path style="fill:#7e7f80; stroke:none;" d="M370 230L371 231L370 230z"/>
<path style="fill:#9dbad6; stroke:none;" d="M371 230L372 231L371 230z"/>
<path style="fill:#7e7f80; stroke:none;" d="M536 230L537 231L536 230z"/>
<path style="fill:#9dbad6; stroke:none;" d="M276 231L277 232L276 231z"/>
<path style="fill:#7e7f80; stroke:none;" d="M369 231L370 232L369 231z"/>
<path style="fill:#849ab1; stroke:none;" d="M536.333 231.667L536.667 232.333L536.333 231.667z"/>
<path style="fill:#9dbad6; stroke:none;" d="M277 232L278 233L277 232z"/>
<path style="fill:#849ab1; stroke:none;" d="M368 232L369 233L368 232z"/>
<path style="fill:#7e7f80; stroke:none;" d="M278 233L279 234L278 233z"/>
<path style="fill:#849ab1; stroke:none;" d="M367 233L368 234L367 233z"/>
<path style="fill:#9dbad6; stroke:none;" d="M536.333 233.667L536.667 234.333L536.333 233.667z"/>
<path style="fill:#7e7f80; stroke:none;" d="M279 234L280 235L279 234z"/>
<path style="fill:#9dbad6; stroke:none;" d="M366 234L367 235L366 234M279 235L280 236L279 235M365 235L366 236L365 235M280 236L281 237L280 236z"/>
<path style="fill:#7e7f80; stroke:none;" d="M363 236L364 237L363 236M281 237L282 238L281 237M362 237L363 238L362 237z"/>
<path style="fill:#9dbad6; stroke:none;" d="M393 237L393 242L394 242L393 237z"/>
<path style="fill:#7e7f80; stroke:none;" d="M535.333 237.667L535.667 238.333L535.333 237.667M282 238L283 239L282 238z"/>
<path style="fill:#849ab1; stroke:none;" d="M361 238L362 239L361 238z"/>
<path style="fill:#9dbad6; stroke:none;" d="M282 239L283 240L282 239M360 239L361 240L360 239z"/>
<path style="fill:#849ab1; stroke:none;" d="M535 239L536 240L535 239z"/>
<path style="fill:#9dbad6; stroke:none;" d="M283 240L284 241L283 240M359 240L360 241L359 240M535.333 240.667L535.667 241.333L535.333 240.667z"/>
<path style="fill:#849ab1; stroke:none;" d="M284 241L285 242L284 241z"/>
<path style="fill:#7e7f80; stroke:none;" d="M357 241L358 242L357 241z"/>
<path style="fill:#9dbad6; stroke:none;" d="M358 241L359 242L358 241z"/>
<path style="fill:#7e7f80; stroke:none;" d="M285 242L286 243L285 242M356 242L357 243L356 242z"/>
<path style="fill:#849ab1; stroke:none;" d="M393 242L393 245L394 245L393 242M355 243L356 244L355 243z"/>
<path style="fill:#9dbad6; stroke:none;" d="M286 244L287 245L286 244M354 244L355 245L354 244z"/>
<path style="fill:#7e7f80; stroke:none;" d="M534 244L535 245L534 244z"/>
<path style="fill:#849ab1; stroke:none;" d="M287 245L288 246L287 245z"/>
<path style="fill:#9dbad6; stroke:none;" d="M353 245L354 246L353 245z"/>
<path style="fill:#7e7f80; stroke:none;" d="M393 245L393 250L394 250L393 245z"/>
<path style="fill:#849ab1; stroke:none;" d="M534.333 245.667L534.667 246.333L534.333 245.667z"/>
<path style="fill:#7e7f80; stroke:none;" d="M288 246L289 247L288 246M351 246L352 247L351 246z"/>
<path style="fill:#9dbad6; stroke:none;" d="M352 246L353 247L352 246z"/>
<path style="fill:#7e7f80; stroke:none;" d="M350 247L351 248L350 247z"/>
<path style="fill:#9dbad6; stroke:none;" d="M534.333 247.667L534.667 248.333L534.333 247.667M289 248L290 249L289 248z"/>
<path style="fill:#849ab1; stroke:none;" d="M349 248L350 249L349 248M290 249L291 250L290 249z"/>
<path style="fill:#9dbad6; stroke:none;" d="M348 249L349 250L348 249z"/>
<path style="fill:#7e7f80; stroke:none;" d="M291 250L292 251L291 250z"/>
<path style="fill:#9dbad6; stroke:none;" d="M347 250L348 251L347 250z"/>
<path style="fill:#7e7f80; stroke:none;" d="M345 251L346 252L345 251z"/>
<path style="fill:#9dbad6; stroke:none;" d="M346 251L347 252L346 251z"/>
<path style="fill:#7e7f80; stroke:none;" d="M533.333 251.667L533.667 252.333L533.333 251.667z"/>
<path style="fill:#9dbad6; stroke:none;" d="M292 252L293 253L292 252z"/>
<path style="fill:#7e7f80; stroke:none;" d="M344 252L345 253L344 252z"/>
<path style="fill:#849ab1; stroke:none;" d="M293 253L294 254L293 253M343 253L344 254L343 253M533 253L534 254L533 253z"/>
<path style="fill:#7e7f80; stroke:none;" d="M294 254L295 255L294 254z"/>
<path style="fill:#849ab1; stroke:none;" d="M342 254L343 255L342 254z"/>
<path style="fill:#9dbad6; stroke:none;" d="M533.333 254.667L533.667 255.333L533.333 254.667M341 255L342 256L341 255M295 256L296 257L295 256z"/>
<path style="fill:#7e7f80; stroke:none;" d="M339 256L340 257L339 256z"/>
<path style="fill:#9dbad6; stroke:none;" d="M340 256L341 257L340 256M392 256L392 263L393 263L392 256z"/>
<path style="fill:#849ab1; stroke:none;" d="M296 257L297 258L296 257z"/>
<path style="fill:#7e7f80; stroke:none;" d="M338 257L339 258L338 257M297 258L298 259L297 258z"/>
<path style="fill:#849ab1; stroke:none;" d="M337 258L338 259L337 258z"/>
<path style="fill:#7e7f80; stroke:none;" d="M532.333 258.667L532.667 259.333L532.333 258.667z"/>
<path style="fill:#9dbad6; stroke:none;" d="M336 259L337 260L336 259M298 260L299 261L298 260M335 260L336 261L335 260z"/>
<path style="fill:#849ab1; stroke:none;" d="M532.333 260.667L532.667 261.333L532.333 260.667M299 261L300 262L299 261z"/>
<path style="fill:#9dbad6; stroke:none;" d="M334 261L335 262L334 261z"/>
<path style="fill:#7e7f80; stroke:none;" d="M300 262L301 263L300 262M332 262L333 263L332 262z"/>
<path style="fill:#9dbad6; stroke:none;" d="M333 262L334 263L333 262M532.333 262.667L532.667 263.333L532.333 262.667z"/>
<path style="fill:#7e7f80; stroke:none;" d="M331 263L332 264L331 263z"/>
<path style="fill:#849ab1; stroke:none;" d="M392 263L392 267L393 267L392 263z"/>
<path style="fill:#9dbad6; stroke:none;" d="M301 264L302 265L301 264z"/>
<path style="fill:#849ab1; stroke:none;" d="M330 264L331 265L330 264z"/>
<path style="fill:#9dbad6; stroke:none;" d="M302 265L303 266L302 265M329 265L330 266L329 265z"/>
<path style="fill:#7e7f80; stroke:none;" d="M303 266L304 267L303 266z"/>
<path style="fill:#9dbad6; stroke:none;" d="M328 266L329 267L328 266z"/>
<path style="fill:#7e7f80; stroke:none;" d="M531 266L532 267L531 266M326 267L327 268L326 267z"/>
<path style="fill:#9dbad6; stroke:none;" d="M327 267L328 268L327 267z"/>
<path style="fill:#7e7f80; stroke:none;" d="M392 267L392 271L393 271L392 267z"/>
<path style="fill:#849ab1; stroke:none;" d="M531.333 267.667L531.667 268.333L531.333 267.667z"/>
<path style="fill:#9dbad6; stroke:none;" d="M304 268L305 269L304 268z"/>
<path style="fill:#7e7f80; stroke:none;" d="M325 268L326 269L325 268z"/>
<path style="fill:#9dbad6; stroke:none;" d="M305 269L306 270L305 269z"/>
<path style="fill:#849ab1; stroke:none;" d="M324 269L325 270L324 269z"/>
<path style="fill:#9dbad6; stroke:none;" d="M531.333 269.667L531.667 270.333L531.333 269.667z"/>
<path style="fill:#7e7f80; stroke:none;" d="M306 270L307 271L306 270z"/>
<path style="fill:#9dbad6; stroke:none;" d="M323 270L324 271L323 270z"/>
<path style="fill:#7e7f80; stroke:none;" d="M307 271L308 272L307 271z"/>
<path style="fill:#9dbad6; stroke:none;" d="M322 271L323 272L322 271M307 272L308 273L307 272z"/>
<path style="fill:#7e7f80; stroke:none;" d="M320 272L321 273L320 272z"/>
<path style="fill:#9dbad6; stroke:none;" d="M321 272L322 273L321 272M308 273L309 274L308 273z"/>
<path style="fill:#7e7f80; stroke:none;" d="M319 273L320 274L319 273M530.333 273.667L530.667 274.333L530.333 273.667z"/>
<path style="fill:#849ab1; stroke:none;" d="M309 274L310 275L309 274M318 274L319 275L318 274z"/>
<path style="fill:#7e7f80; stroke:none;" d="M310 275L311 276L310 275z"/>
<path style="fill:#9dbad6; stroke:none;" d="M317 275L318 276L317 275z"/>
<path style="fill:#849ab1; stroke:none;" d="M530 275L531 276L530 275z"/>
<path style="fill:#9dbad6; stroke:none;" d="M310 276L311 277L310 276M316 276L317 277L316 276M530.333 276.667L530.667 277.333L530.333 276.667M311 277L312 278L311 277z"/>
<path style="fill:#7e7f80; stroke:none;" d="M314 277L315 278L314 277z"/>
<path style="fill:#849ab1; stroke:none;" d="M312 278L313 279L312 278z"/>
<path style="fill:#7e7f80; stroke:none;" d="M313 278L314 279L313 278z"/>
<path style="fill:#9dbad6; stroke:none;" d="M391 278L391 282L392 282L391 278z"/>
<path style="fill:#7e7f80; stroke:none;" d="M529 280L530 281L529 280z"/>
<path style="fill:#849ab1; stroke:none;" d="M529.333 281.667L529.667 282.333L529.333 281.667M391 282L391 286L392 286L391 282z"/>
<path style="fill:#9dbad6; stroke:none;" d="M529.333 283.667L529.667 284.333L529.333 283.667z"/>
<path style="fill:#7e7f80; stroke:none;" d="M391 286L391 291L392 291L391 286M528.333 287.667L528.667 288.333L528.333 287.667z"/>
<path style="fill:#849ab1; stroke:none;" d="M528 289L529 290L528 289z"/>
<path style="fill:#9dbad6; stroke:none;" d="M528.333 290.667L528.667 291.333L528.333 290.667z"/>
<path style="fill:#7e7f80; stroke:none;" d="M527.333 294.667L527.667 295.333L527.333 294.667z"/>
<path style="fill:#849ab1; stroke:none;" d="M527 296L528 297L527 296z"/>
<path style="fill:#9dbad6; stroke:none;" d="M390 297L390 304L391 304L390 297M527.333 297.667L527.667 298.333L527.333 297.667z"/>
<path style="fill:#7e7f80; stroke:none;" d="M526.333 302.667L526.667 303.333L526.333 302.667z"/>
<path style="fill:#849ab1; stroke:none;" d="M390 304L390 308L391 308L390 304M526 304L527 305L526 304z"/>
<path style="fill:#9dbad6; stroke:none;" d="M526.333 305.667L526.667 306.333L526.333 305.667z"/>
<path style="fill:#7e7f80; stroke:none;" d="M390 308L390 312L391 312L390 308M525.333 309.667L525.667 310.333L525.333 309.667z"/>
<path style="fill:#849ab1; stroke:none;" d="M525 311L526 312L525 311z"/>
<path style="fill:#9dbad6; stroke:none;" d="M525.333 312.667L525.667 313.333L525.333 312.667z"/>
<path style="fill:#7e7f80; stroke:none;" d="M524.333 316.667L524.667 317.333L524.333 316.667z"/>
<path style="fill:#849ab1; stroke:none;" d="M524 318L525 319L524 318z"/>
<path style="fill:#9dbad6; stroke:none;" d="M389 319L389 324L390 324L389 319M524.333 319.667L524.667 320.333L524.333 319.667z"/>
<path style="fill:#7e7f80; stroke:none;" d="M523.333 323.667L523.667 324.333L523.333 323.667z"/>
<path style="fill:#849ab1; stroke:none;" d="M389 324L389 327L390 327L389 324M523 325L524 326L523 325z"/>
<path style="fill:#9dbad6; stroke:none;" d="M523.333 326.667L523.667 327.333L523.333 326.667z"/>
<path style="fill:#7e7f80; stroke:none;" d="M389 327L389 332L390 332L389 327M522.333 330.667L522.667 331.333L522.333 330.667z"/>
<path style="fill:#849ab1; stroke:none;" d="M522 332L523 333L522 332z"/>
<path style="fill:#9dbad6; stroke:none;" d="M522.333 333.667L522.667 334.333L522.333 333.667M388 338L388 345L389 345L388 338z"/>
<path style="fill:#7e7f80; stroke:none;" d="M521 338L522 339L521 338z"/>
<path style="fill:#849ab1; stroke:none;" d="M521.333 339.667L521.667 340.333L521.333 339.667z"/>
<path style="fill:#9dbad6; stroke:none;" d="M521.333 341.667L521.667 342.333L521.333 341.667z"/>
<path style="fill:#849ab1; stroke:none;" d="M388 345L388 349L389 349L388 345z"/>
<path style="fill:#7e7f80; stroke:none;" d="M520.333 345.667L520.667 346.333L520.333 345.667z"/>
<path style="fill:#849ab1; stroke:none;" d="M520 347L521 348L520 347z"/>
<path style="fill:#9dbad6; stroke:none;" d="M520.333 348.667L520.667 349.333L520.333 348.667z"/>
<path style="fill:#7e7f80; stroke:none;" d="M388 349L388 353L389 353L388 349M519.333 352.667L519.667 353.333L519.333 352.667z"/>
<path style="fill:#849ab1; stroke:none;" d="M519 354L520 355L519 354z"/>
<path style="fill:#9dbad6; stroke:none;" d="M519.333 355.667L519.667 356.333L519.333 355.667z"/>
<path style="fill:#7e7f80; stroke:none;" d="M518.333 359.667L518.667 360.333L518.333 359.667z"/>
<path style="fill:#9dbad6; stroke:none;" d="M387 360L387 364L388 364L387 360z"/>
<path style="fill:#849ab1; stroke:none;" d="M518.333 361.667L518.667 362.333L518.333 361.667z"/>
<path style="fill:#9dbad6; stroke:none;" d="M518.333 363.667L518.667 364.333L518.333 363.667z"/>
<path style="fill:#849ab1; stroke:none;" d="M387 364L387 368L388 368L387 364z"/>
<path style="fill:#7e7f80; stroke:none;" d="M517 367L518 368L517 367M387 368L387 373L388 373L387 368z"/>
<path style="fill:#849ab1; stroke:none;" d="M517.333 368.667L517.667 369.333L517.333 368.667z"/>
<path style="fill:#9dbad6; stroke:none;" d="M517.333 370.667L517.667 371.333L517.333 370.667z"/>
<path style="fill:#7e7f80; stroke:none;" d="M516.333 374.667L516.667 375.333L516.333 374.667z"/>
<path style="fill:#849ab1; stroke:none;" d="M516 376L517 377L516 376z"/>
<path style="fill:#9dbad6; stroke:none;" d="M516.333 377.667L516.667 378.333L516.333 377.667M386 379L386 386L387 386L386 379z"/>
<path style="fill:#7e7f80; stroke:none;" d="M515 381L516 382L515 381z"/>
<path style="fill:#849ab1; stroke:none;" d="M515.333 382.667L515.667 383.333L515.333 382.667z"/>
<path style="fill:#9dbad6; stroke:none;" d="M515.333 384.667L515.667 385.333L515.333 384.667z"/>
<path style="fill:#849ab1; stroke:none;" d="M386 386L386 390L387 390L386 386z"/>
<path style="fill:#7e7f80; stroke:none;" d="M514.333 388.667L514.667 389.333L514.333 388.667M386 390L386 394L387 394L386 390z"/>
<path style="fill:#849ab1; stroke:none;" d="M514 390L515 391L514 390z"/>
<path style="fill:#9dbad6; stroke:none;" d="M514.333 391.667L514.667 392.333L514.333 391.667z"/>
<path style="fill:#7e7f80; stroke:none;" d="M513.333 395.667L513.667 396.333L513.333 395.667z"/>
<path style="fill:#849ab1; stroke:none;" d="M513 397L514 398L513 397z"/>
<path style="fill:#9dbad6; stroke:none;" d="M513 398L513 401L514 401L513 398M385 400L385 405L386 405L385 400z"/>
<path style="fill:#7e7f80; stroke:none;" d="M512 403L513 404L512 403z"/>
<path style="fill:#849ab1; stroke:none;" d="M512.333 404.667L512.667 405.333L512.333 404.667M385 405L385 409L386 409L385 405z"/>
<path style="fill:#9dbad6; stroke:none;" d="M512.333 406.667L512.667 407.333L512.333 406.667z"/>
<path style="fill:#7e7f80; stroke:none;" d="M385 409L385 414L386 414L385 409M511.333 410.667L511.667 411.333L511.333 410.667z"/>
<path style="fill:#849ab1; stroke:none;" d="M511 412L512 413L511 412z"/>
<path style="fill:#9dbad6; stroke:none;" d="M511.333 413.667L511.667 414.333L511.333 413.667z"/>
<path style="fill:#7e7f80; stroke:none;" d="M510.333 417.667L510.667 418.333L510.333 417.667z"/>
<path style="fill:#849ab1; stroke:none;" d="M510 419L511 420L510 419z"/>
<path style="fill:#9dbad6; stroke:none;" d="M510.333 420.667L510.667 421.333L510.333 420.667M384 422L384 427L385 427L384 422z"/>
<path style="fill:#7e7f80; stroke:none;" d="M509.333 424.667L509.667 425.333L509.333 424.667z"/>
<path style="fill:#849ab1; stroke:none;" d="M509 426L510 427L509 426M384 427L384 431L385 431L384 427z"/>
<path style="fill:#9dbad6; stroke:none;" d="M509.333 427.667L509.667 428.333L509.333 427.667z"/>
<path style="fill:#7e7f80; stroke:none;" d="M384 431L384 435L385 435L384 431M508.333 431.667L508.667 432.333L508.333 431.667z"/>
<path style="fill:#849ab1; stroke:none;" d="M508 433L509 434L508 433z"/>
<path style="fill:#9dbad6; stroke:none;" d="M508.333 434.667L508.667 435.333L508.333 434.667z"/>
<path style="fill:#7e7f80; stroke:none;" d="M507 439L508 440L507 439z"/>
<path style="fill:#849ab1; stroke:none;" d="M507.333 440.667L507.667 441.333L507.333 440.667z"/>
<path style="fill:#9dbad6; stroke:none;" d="M383 441L383 446L384 446L383 441M507.333 442.667L507.667 443.333L507.333 442.667z"/>
<path style="fill:#849ab1; stroke:none;" d="M383 446L383 450L384 450L383 446z"/>
<path style="fill:#7e7f80; stroke:none;" d="M506.333 446.667L506.667 447.333L506.333 446.667z"/>
<path style="fill:#849ab1; stroke:none;" d="M506 448L507 449L506 448z"/>
<path style="fill:#9dbad6; stroke:none;" d="M506.333 449.667L506.667 450.333L506.333 449.667z"/>
<path style="fill:#7e7f80; stroke:none;" d="M383 450L383 455L384 455L383 450M505.333 453.667L505.667 454.333L505.333 453.667z"/>
<path style="fill:#849ab1; stroke:none;" d="M505 455L506 456L505 455z"/>
<path style="fill:#9dbad6; stroke:none;" d="M505.333 456.667L505.667 457.333L505.333 456.667z"/>
<path style="fill:#7e7f80; stroke:none;" d="M504.333 460.667L504.667 461.333L504.333 460.667z"/>
<path style="fill:#9dbad6; stroke:none;" d="M382 462L382 468L383 468L382 462z"/>
<path style="fill:#849ab1; stroke:none;" d="M504 462L505 463L504 462z"/>
<path style="fill:#9dbad6; stroke:none;" d="M504.333 463.667L504.667 464.333L504.333 463.667z"/>
<path style="fill:#7e7f80; stroke:none;" d="M503.333 467.667L503.667 468.333L503.333 467.667z"/>
<path style="fill:#849ab1; stroke:none;" d="M382 468L382 472L383 472L382 468M503 469L504 470L503 469z"/>
<path style="fill:#9dbad6; stroke:none;" d="M503.333 470.667L503.667 471.333L503.333 470.667z"/>
<path style="fill:#7e7f80; stroke:none;" d="M382 472L382 476L383 476L382 472M502 475L503 476L502 475z"/>
<path style="fill:#849ab1; stroke:none;" d="M502 476L503 477L502 476z"/>
<path style="fill:#9dbad6; stroke:none;" d="M502.333 477.667L502.667 478.333L502.333 477.667M381 481L381 487L382 487L381 481z"/>
<path style="fill:#7e7f80; stroke:none;" d="M501.333 482.667L501.667 483.333L501.333 482.667z"/>
<path style="fill:#849ab1; stroke:none;" d="M501 484L502 485L501 484z"/>
<path style="fill:#9dbad6; stroke:none;" d="M587.667 484.333L588.333 484.667L587.667 484.333z"/>
<path style="fill:#849ab1; stroke:none;" d="M589.667 484.333L590.333 484.667L589.667 484.333z"/>
<path style="fill:#7e7f80; stroke:none;" d="M591.667 484.333L592.333 484.667L591.667 484.333z"/>
<path style="fill:#9dbad6; stroke:none;" d="M593 484L594 485L593 484M501.333 485.667L501.667 486.333L501.333 485.667M580 485L581 486L580 485z"/>
<path style="fill:#849ab1; stroke:none;" d="M581.667 485.333L582.333 485.667L581.667 485.333z"/>
<path style="fill:#7e7f80; stroke:none;" d="M583.667 485.333L584.333 485.667L583.667 485.333z"/>
<path style="fill:#849ab1; stroke:none;" d="M593.333 485.667L593.667 486.333L593.333 485.667z"/>
<path style="fill:#9dbad6; stroke:none;" d="M572.667 486.333L573.333 486.667L572.667 486.333z"/>
<path style="fill:#849ab1; stroke:none;" d="M574.667 486.333L575.333 486.667L574.667 486.333z"/>
<path style="fill:#7e7f80; stroke:none;" d="M576 486L577 487L576 486z"/>
<path style="fill:#849ab1; stroke:none;" d="M381 487L381 491L382 491L381 487z"/>
<path style="fill:#9dbad6; stroke:none;" d="M564.667 487.333L565.333 487.667L564.667 487.333z"/>
<path style="fill:#849ab1; stroke:none;" d="M566.667 487.333L567.333 487.667L566.667 487.333z"/>
<path style="fill:#7e7f80; stroke:none;" d="M568 487L569 488L568 487M593 487L594 488L593 487z"/>
<path style="fill:#9dbad6; stroke:none;" d="M556.667 488.333L557.333 488.667L556.667 488.333z"/>
<path style="fill:#849ab1; stroke:none;" d="M558.667 488.333L559.333 488.667L558.667 488.333z"/>
<path style="fill:#7e7f80; stroke:none;" d="M560.667 488.333L561.333 488.667L560.667 488.333M500.333 489.667L500.667 490.333L500.333 489.667z"/>
<path style="fill:#9dbad6; stroke:none;" d="M548.667 489.333L549.333 489.667L548.667 489.333z"/>
<path style="fill:#849ab1; stroke:none;" d="M550.667 489.333L551.333 489.667L550.667 489.333z"/>
<path style="fill:#7e7f80; stroke:none;" d="M552.667 489.333L553.333 489.667L552.667 489.333z"/>
<path style="fill:#9dbad6; stroke:none;" d="M540 490L540 491L543 491L540 490z"/>
<path style="fill:#849ab1; stroke:none;" d="M543 490L544 491L543 490z"/>
<path style="fill:#7e7f80; stroke:none;" d="M544.667 490.333L545.333 490.667L544.667 490.333z"/>
<path style="fill:#9dbad6; stroke:none;" d="M594.333 490.667L594.667 491.333L594.333 490.667z"/>
<path style="fill:#7e7f80; stroke:none;" d="M381 491L381 496L382 496L381 491z"/>
<path style="fill:#849ab1; stroke:none;" d="M500 491L501 492L500 491z"/>
<path style="fill:#9dbad6; stroke:none;" d="M533.667 491.333L534.333 491.667L533.667 491.333z"/>
<path style="fill:#849ab1; stroke:none;" d="M535.667 491.333L536.333 491.667L535.667 491.333z"/>
<path style="fill:#7e7f80; stroke:none;" d="M537 491L538 492L537 491z"/>
<path style="fill:#9dbad6; stroke:none;" d="M500.333 492.667L500.667 493.333L500.333 492.667M526.667 492.333L527.333 492.667L526.667 492.333z"/>
<path style="fill:#849ab1; stroke:none;" d="M528 492L529 493L528 492z"/>
<path style="fill:#7e7f80; stroke:none;" d="M529.667 492.333L530.333 492.667L529.667 492.333z"/>
<path style="fill:#849ab1; stroke:none;" d="M594 492L595 493L594 492z"/>
<path style="fill:#9dbad6; stroke:none;" d="M517.667 493.333L518.333 493.667L517.667 493.333z"/>
<path style="fill:#849ab1; stroke:none;" d="M519.667 493.333L520.333 493.667L519.667 493.333z"/>
<path style="fill:#7e7f80; stroke:none;" d="M521.667 493.333L522.333 493.667L521.667 493.333M594.333 493.667L594.667 494.333L594.333 493.667z"/>
<path style="fill:#9dbad6; stroke:none;" d="M509 494L509 495L512 495L509 494z"/>
<path style="fill:#849ab1; stroke:none;" d="M512 494L513 495L512 494z"/>
<path style="fill:#7e7f80; stroke:none;" d="M513.667 494.333L514.333 494.667L513.667 494.333z"/>
<path style="fill:#9dbad6; stroke:none;" d="M502.667 495.333L503.333 495.667L502.667 495.333z"/>
<path style="fill:#849ab1; stroke:none;" d="M504 495L505 496L504 495z"/>
<path style="fill:#7e7f80; stroke:none;" d="M505.667 495.333L506.333 495.667L505.667 495.333z"/>
<path style="fill:#9dbad6; stroke:none;" d="M595.333 497.667L595.667 498.333L595.333 497.667M264 499L264 520L265 520L264 499z"/>
<path style="fill:#849ab1; stroke:none;" d="M265.667 499.333L266.333 499.667L265.667 499.333z"/>
<path style="fill:#9dbad6; stroke:none;" d="M267 499L267 500L270 500L267 499z"/>
<path style="fill:#849ab1; stroke:none;" d="M595.333 499.667L595.667 500.333L595.333 499.667z"/>
<path style="fill:#7e7f80; stroke:none;" d="M273 500L274 501L273 500z"/>
<path style="fill:#849ab1; stroke:none;" d="M274.667 500.333L275.333 500.667L274.667 500.333z"/>
<path style="fill:#9dbad6; stroke:none;" d="M276 500L276 501L279 501L276 500z"/>
<path style="fill:#7e7f80; stroke:none;" d="M282.667 501.333L283.333 501.667L282.667 501.333z"/>
<path style="fill:#849ab1; stroke:none;" d="M284.667 501.333L285.333 501.667L284.667 501.333z"/>
<path style="fill:#9dbad6; stroke:none;" d="M286 501L286 502L289 502L286 501z"/>
<path style="fill:#7e7f80; stroke:none;" d="M595 501L596 502L595 501M292.667 502.333L293.333 502.667L292.667 502.333z"/>
<path style="fill:#849ab1; stroke:none;" d="M294.667 502.333L295.333 502.667L294.667 502.333z"/>
<path style="fill:#9dbad6; stroke:none;" d="M296.667 502.333L297.333 502.667L296.667 502.333z"/>
<path style="fill:#7e7f80; stroke:none;" d="M301.667 503.333L302.333 503.667L301.667 503.333z"/>
<path style="fill:#849ab1; stroke:none;" d="M303.667 503.333L304.333 503.667L303.667 503.333z"/>
<path style="fill:#9dbad6; stroke:none;" d="M305.667 503.333L306.333 503.667L305.667 503.333M380 503L380 509L381 509L380 503z"/>
<path style="fill:#7e7f80; stroke:none;" d="M310.667 504.333L311.333 504.667L310.667 504.333z"/>
<path style="fill:#849ab1; stroke:none;" d="M312.667 504.333L313.333 504.667L312.667 504.333z"/>
<path style="fill:#9dbad6; stroke:none;" d="M314 504L314 505L317 505L314 504M596.333 504.667L596.667 505.333L596.333 504.667z"/>
<path style="fill:#7e7f80; stroke:none;" d="M320.667 505.333L321.333 505.667L320.667 505.333z"/>
<path style="fill:#849ab1; stroke:none;" d="M322.667 505.333L323.333 505.667L322.667 505.333z"/>
<path style="fill:#9dbad6; stroke:none;" d="M324 505L324 506L327 506L324 505z"/>
<path style="fill:#7e7f80; stroke:none;" d="M330.667 506.333L331.333 506.667L330.667 506.333z"/>
<path style="fill:#849ab1; stroke:none;" d="M332.667 506.333L333.333 506.667L332.667 506.333z"/>
<path style="fill:#9dbad6; stroke:none;" d="M334.667 506.333L335.333 506.667L334.667 506.333z"/>
<path style="fill:#849ab1; stroke:none;" d="M596 506L597 507L596 506z"/>
<path style="fill:#7e7f80; stroke:none;" d="M339.667 507.333L340.333 507.667L339.667 507.333z"/>
<path style="fill:#849ab1; stroke:none;" d="M341.667 507.333L342.333 507.667L341.667 507.333z"/>
<path style="fill:#9dbad6; stroke:none;" d="M343.667 507.333L344.333 507.667L343.667 507.333z"/>
<path style="fill:#7e7f80; stroke:none;" d="M596.333 507.667L596.667 508.333L596.333 507.667M348.667 508.333L349.333 508.667L348.667 508.333z"/>
<path style="fill:#849ab1; stroke:none;" d="M350.667 508.333L351.333 508.667L350.667 508.333z"/>
<path style="fill:#9dbad6; stroke:none;" d="M352 508L352 509L355 509L352 508z"/>
<path style="fill:#7e7f80; stroke:none;" d="M358.667 509.333L359.333 509.667L358.667 509.333z"/>
<path style="fill:#849ab1; stroke:none;" d="M360.667 509.333L361.333 509.667L360.667 509.333z"/>
<path style="fill:#9dbad6; stroke:none;" d="M362 509L362 510L365 510L362 509z"/>
<path style="fill:#849ab1; stroke:none;" d="M380 509L379 512L380 509z"/>
<path style="fill:#7e7f80; stroke:none;" d="M368.667 510.333L369.333 510.667L368.667 510.333z"/>
<path style="fill:#849ab1; stroke:none;" d="M370.667 510.333L371.333 510.667L370.667 510.333z"/>
<path style="fill:#9dbad6; stroke:none;" d="M372.667 510.333L373.333 510.667L372.667 510.333z"/>
<path style="fill:#7e7f80; stroke:none;" d="M377.667 511.333L378.333 511.667L377.667 511.333M380 511L381 512L380 511z"/>
<path style="fill:#9dbad6; stroke:none;" d="M597.333 511.667L597.667 512.333L597.333 511.667z"/>
<path style="fill:#849ab1; stroke:none;" d="M597 513L598 514L597 513z"/>
<path style="fill:#7e7f80; stroke:none;" d="M597.333 514.667L597.667 515.333L597.333 514.667z"/>
<path style="fill:#9dbad6; stroke:none;" d="M598.333 518.667L598.667 519.333L598.333 518.667z"/>
<path style="fill:#849ab1; stroke:none;" d="M264 520L264 540L265 540L264 520M598 520L599 521L598 520z"/>
<path style="fill:#7e7f80; stroke:none;" d="M598.333 521.667L598.667 522.333L598.333 521.667z"/>
<path style="fill:#9dbad6; stroke:none;" d="M599.333 524.667L599.667 525.333L599.333 524.667z"/>
<path style="fill:#849ab1; stroke:none;" d="M599.333 526.667L599.667 527.333L599.333 526.667z"/>
<path style="fill:#7e7f80; stroke:none;" d="M599 528L600 529L599 528z"/>
<path style="fill:#9dbad6; stroke:none;" d="M600.333 532.667L600.667 533.333L600.333 532.667z"/>
<path style="fill:#849ab1; stroke:none;" d="M600 534L601 535L600 534z"/>
<path style="fill:#7e7f80; stroke:none;" d="M600 535L601 536L600 535z"/>
<path style="fill:#9dbad6; stroke:none;" d="M601 539L602 540L601 539M264 540L264 560L265 560L264 540z"/>
<path style="fill:#849ab1; stroke:none;" d="M601.333 540.667L601.667 541.333L601.333 540.667z"/>
<path style="fill:#7e7f80; stroke:none;" d="M601 542L602 543L601 542z"/>
<path style="fill:#9dbad6; stroke:none;" d="M602.333 545.667L602.667 546.333L602.333 545.667z"/>
<path style="fill:#849ab1; stroke:none;" d="M602 547L603 548L602 547z"/>
<path style="fill:#7e7f80; stroke:none;" d="M602.333 548.667L602.667 549.333L602.333 548.667z"/>
<path style="fill:#9dbad6; stroke:none;" d="M603.333 552.667L603.667 553.333L603.333 552.667z"/>
<path style="fill:#849ab1; stroke:none;" d="M603 554L604 555L603 554z"/>
<path style="fill:#7e7f80; stroke:none;" d="M603.333 555.667L603.667 556.333L603.333 555.667z"/>
<path style="fill:#9dbad6; stroke:none;" d="M604.333 559.667L604.667 560.333L604.333 559.667z"/>
<path style="fill:#849ab1; stroke:none;" d="M264 560L264 580L265 580L264 560M604 561L605 562L604 561z"/>
<path style="fill:#7e7f80; stroke:none;" d="M604.333 562.667L604.667 563.333L604.333 562.667z"/>
<path style="fill:#9dbad6; stroke:none;" d="M605.333 566.667L605.667 567.333L605.333 566.667z"/>
<path style="fill:#849ab1; stroke:none;" d="M605 568L606 569L605 568z"/>
<path style="fill:#7e7f80; stroke:none;" d="M605.333 569.667L605.667 570.333L605.333 569.667z"/>
<path style="fill:#9dbad6; stroke:none;" d="M606.333 573.667L606.667 574.333L606.333 573.667z"/>
<path style="fill:#849ab1; stroke:none;" d="M606 575L607 576L606 575z"/>
<path style="fill:#7e7f80; stroke:none;" d="M606.333 576.667L606.667 577.333L606.333 576.667z"/>
<path style="fill:#9dbad6; stroke:none;" d="M264 580L264 600L265 600L264 580M607 580L608 581L607 580z"/>
<path style="fill:#849ab1; stroke:none;" d="M607.333 581.667L607.667 582.333L607.333 581.667z"/>
<path style="fill:#7e7f80; stroke:none;" d="M607 583L608 584L607 583z"/>
<path style="fill:#9dbad6; stroke:none;" d="M608.333 586.667L608.667 587.333L608.333 586.667z"/>
<path style="fill:#849ab1; stroke:none;" d="M608 588L609 589L608 588z"/>
<path style="fill:#7e7f80; stroke:none;" d="M608.333 589.667L608.667 590.333L608.333 589.667z"/>
<path style="fill:#9dbad6; stroke:none;" d="M609.333 593.667L609.667 594.333L609.333 593.667z"/>
<path style="fill:#849ab1; stroke:none;" d="M609 595L610 596L609 595z"/>
<path style="fill:#7e7f80; stroke:none;" d="M609.333 596.667L609.667 597.333L609.333 596.667z"/>
<path style="fill:#849ab1; stroke:none;" d="M264 600L264 620L265 620L264 600z"/>
<path style="fill:#9dbad6; stroke:none;" d="M610.333 600.667L610.667 601.333L610.333 600.667z"/>
<path style="fill:#849ab1; stroke:none;" d="M610 602L611 603L610 602z"/>
<path style="fill:#7e7f80; stroke:none;" d="M610.333 603.667L610.667 604.333L610.333 603.667z"/>
<path style="fill:#9dbad6; stroke:none;" d="M611.333 607.667L611.667 608.333L611.333 607.667z"/>
<path style="fill:#849ab1; stroke:none;" d="M611 609L612 610L611 609z"/>
<path style="fill:#7e7f80; stroke:none;" d="M611.333 610.667L611.667 611.333L611.333 610.667z"/>
<path style="fill:#9dbad6; stroke:none;" d="M612.333 614.667L612.667 615.333L612.333 614.667z"/>
<path style="fill:#849ab1; stroke:none;" d="M612 616L613 617L612 616z"/>
<path style="fill:#7e7f80; stroke:none;" d="M612.333 617.667L612.667 618.333L612.333 617.667z"/>
<path style="fill:#9dbad6; stroke:none;" d="M264 620L264 637L265 637L264 620M613.333 620.667L613.667 621.333L613.333 620.667z"/>
<path style="fill:#849ab1; stroke:none;" d="M613.333 622.667L613.667 623.333L613.333 622.667z"/>
<path style="fill:#7e7f80; stroke:none;" d="M613 624L614 625L613 624z"/>
<path style="fill:#9dbad6; stroke:none;" d="M614.333 627.667L614.667 628.333L614.333 627.667z"/>
<path style="fill:#849ab1; stroke:none;" d="M614.333 629.667L614.667 630.333L614.333 629.667z"/>
<path style="fill:#7e7f80; stroke:none;" d="M614 631L615 632L614 631z"/>
</svg>
