<?xml version="1.0" standalone="yes"?>
<svg xmlns="http://www.w3.org/2000/svg" width="600" height="550">
<path style="fill:#fefefe; stroke:none;" d="M0 0L0 98C10.1316 93.3592 18.9769 83.5239 28 76.8843C42.5256 66.1956 58.1569 56.8771 74 48.3087C131.083 17.4365 201.214 1 266 1L242 0L188 0L0 0z"/>
<path style="fill:#ababab; stroke:none;" d="M41 115L80 133L76 135C82.4008 140.171 106.995 153.009 113 146L90 136C132.896 93.9894 177.168 50.9219 223 12.1481C235.051 1.95312 257.989 13.1498 268 0C251.968 2.97644 235.172 1.74554 219 4.59491C213.821 5.50739 210.801 9.24133 206 10.7716C194.813 14.3372 182.434 15.2687 171 18.1265C158.276 21.3068 142.439 23.4428 131 30.0856C112.231 40.9849 95.8655 62.1314 80 76.9105C68.371 87.7431 47.7414 100.584 41 115z"/>
<path style="fill:#cdcdcd; stroke:none;" d="M90 136L113 146L110 150L137 162.15L148 165.867L165 153.015L203 131.872L260 115.228L280 112.411L310 85.0394L362 36.9105L388 13L388 12L370 9L374 4L272 0.0586548L257 5.71063L226 9.56409L214 19.8303L186 45.9105L127 100.83L90 136z"/>
<path style="fill:#fefefe; stroke:none;" d="M335 0L335 1C400.997 1 482.494 24.5522 530 72C567.535 109.49 581.416 168.42 545.536 212C529.982 230.893 510.125 245.423 490 259C499.291 266.506 513.438 270.003 524 275.861C557.403 294.388 598.125 326.841 599 369L600 369L600 0L335 0z"/>
<path style="fill:#919191; stroke:none;" d="M163 19L163 20C173.42 18.5969 183.646 15.1943 194 13.2608C201.713 11.8205 209.064 11.7798 214 5C196.513 7.22156 177.571 8.89856 163 19z"/>
<path style="fill:#ababab; stroke:none;" d="M370 9L388 12L388 13C377.049 18.1068 368.052 30.7302 359 38.7145C334.754 60.0999 311.657 82.8753 288 104.91C284.652 108.029 280.572 112.543 276 113.682C267.551 115.787 259.139 111.941 253 120C267.499 119.701 282.662 121.385 296.999 120.684C300.697 120.503 303.255 117.749 307.09 118.269C315.603 119.424 327.965 128.261 336 127.007C344.808 125.632 356.353 109.35 363 103.576C381.566 87.4471 399.004 69.8533 417 53.0895C425.922 44.7784 436.957 36.9967 444 27L411 17L414 12C403.037 10.5238 378.23 -0.881287 370 9z"/>
<path style="fill:#7f7f7f; stroke:none;" d="M69 56C92.159 46.3581 114.074 34.9738 138 27C148.54 23.4874 163.16 22.476 170 13C146.054 17.9426 122.447 25.9731 100 35.5787C88.1523 40.6486 76.69 45.0831 69 56z"/>
<path style="fill:#919191; stroke:none;" d="M411 17C418.771 18.6083 436.519 28.8045 441 20C433.559 18.2786 415.995 8.45709 411 17M159 20L159 21L162 21L159 20M156.667 21.3333L157.333 21.6667L156.667 21.3333z"/>
<path style="fill:#7f7f7f; stroke:none;" d="M438 25C449.795 27.795 469.715 43.6227 481 38C473.743 31.9868 445.119 16.5376 438 25z"/>
<path style="fill:#919191; stroke:none;" d="M152.667 22.3333L153.333 22.6667L152.667 22.3333M149.667 23.3333L150.333 23.6667L149.667 23.3333M145 24L145 25L148 25L145 24M142.667 25.3333L143.333 25.6667L142.667 25.3333M439.667 25.3333L440.333 25.6667L439.667 25.3333M139.667 26.3333L140.333 26.6667L139.667 26.3333M441 26L441 27L444 27L441 26M136.667 27.3333L137.333 27.6667L136.667 27.3333M300 121C306.985 123.635 316.638 127.548 323.999 128.34C327.287 128.693 329.903 126.68 333.17 127.904C360.045 137.977 365.002 164.615 355 189L363 185C362.599 173.782 367.83 164.661 362 153L390 128.09L452 70.5756L471 52.9854L481 44.9938L501 55L500 52L503 50C497.181 46.1493 490.722 41.0673 484 38.9853C480.847 38.0087 478.598 39.723 475.576 39.4892C471.546 39.1775 466.75 35.9244 463 34.3966C458.245 32.4595 450.23 26.9205 445 27.9321C441.04 28.698 437.876 33.1788 435 35.7145C427.548 42.284 420.073 49.0267 413 56.0038C389.719 78.9706 365.215 105.217 339 124.747C328.702 132.419 310.129 109.458 300 121M133.667 28.3333L134.333 28.6667L133.667 28.3333M130.667 29.3333L131.333 29.6667L130.667 29.3333M69 56L77 47C55.5724 53.3029 33.3225 71.5561 16 85.2107C12.5342 87.9426 -1.37701 96.3008 0.662037 101.649C3.47898 109.037 13.7991 105.808 19 106.392C26.3447 107.216 34.1408 112.339 41 115C64.335 81.9647 106.69 63.0687 130 30C109.693 33.4943 86.6743 45.6841 69 56z"/>
<path style="fill:#7f7f7f; stroke:none;" d="M362 153C372.545 185.979 349.539 208.858 319 217.573C309.337 220.33 294.374 219.557 286 224.742C278.176 229.587 271.791 237.685 265 243.83C252.238 255.378 239.253 266.916 227 279.004C217.673 288.205 197.166 299.979 197 314C216.92 314 237.183 315.056 257 313.17C262.962 312.602 270.403 314.477 276 312.062C281.559 309.663 285.674 304.119 290 300.09C299.987 290.787 309.88 281.326 320 272.17C359.172 236.726 396.831 199.612 436 164.17C455.905 146.159 474.873 127.038 495 109.285C504.189 101.181 520.425 90.5107 526.248 79.7145C528.54 75.4656 521.706 70.6611 519 68.2863C510.594 60.9095 501.436 55.2288 492 49.3195C488.739 47.2769 484.131 43.5911 480 44.7083C475.262 45.9898 471.448 51.6986 468 54.9105C460.052 62.3138 451.734 69.3747 444 77.0038C418.078 102.576 390.945 130.946 362 153z"/>
<path style="fill:#919191; stroke:none;" d="M77 46L78 47L77 46z"/>
<path style="fill:#ababab; stroke:none;" d="M500 52L500 54L530 78C525.759 68.1775 513.798 48.6678 500 52z"/>
<path style="fill:#919191; stroke:none;" d="M502 55L503 56L502 55M503 56L504 57L503 56M505 57L506 58L505 57M506 58L507 59L506 58M509 60L510 61L509 60M510 61L511 62L510 61M514 64L515 65L514 64M515 65L516 66L515 65M516 66L517 67L516 66M520 69L521 70L520 69M521 70L522 71L521 70M522 71L523 72L522 71z"/>
<path style="fill:#cdcdcd; stroke:none;" d="M529 71C526.198 78.2275 536.26 85.4735 540.255 91C552.429 107.842 555.554 124.963 562 144C568.15 138.827 564.061 128.739 561.974 122C556.239 103.47 545.178 82.3974 529 71z"/>
<path style="fill:#919191; stroke:none;" d="M523 72L524 73L523 72M524 73L525 74L524 73M525 74L526 75L525 74M526 75L527 76L526 75M527 76L528 77L527 76M528 77C510.603 99.7483 483.973 118.553 463 138.09C419.679 178.444 376.901 219.447 333 259.17C318.818 272.002 305.345 285.633 291 298.285C285.944 302.745 281.322 309.334 275 312.062C269.14 314.591 260.295 313 254 313L254 314C267.508 314 281.554 312.89 295 314.17C303.282 314.958 317.059 318.691 325 316.307C329.727 314.888 333.414 309.449 337 306.285C346.904 297.55 356.098 288.019 366 279.285C405.273 244.646 442.17 207.305 481 172.17C496.829 157.847 511.887 142.573 528 128.576C533.457 123.835 546.576 115.058 548.582 108C551.014 99.4409 534.097 81.4876 528 77z"/>
<path style="fill:#ababab; stroke:none;" d="M533 82L534 83L533 82M534 83L535 84L534 83M535 84L536 85L535 84M538 88L539 89L538 88M539 89L540 90L539 89M540 91L541 92L540 91M541 92L542 93L541 92M543 95L544 96L543 95M544 97L545 98L544 97M545 98L546 99L545 98M546 100L547 101L546 100M547 102L548 103L547 102z"/>
<path style="fill:#fefefe; stroke:none;" d="M0 103L0 463C32.8535 444.778 64.1656 422.916 96 402.95L123 386.05C126.382 383.929 130.908 379.848 135 379.508C140.94 379.013 148.406 387.801 153 390.975C167.356 400.892 182.893 409.285 199 415.988C244.465 434.909 300.043 437.785 347 422.329C362.547 417.212 379.325 409.196 388.451 395C404.051 370.735 387.296 342.814 364 332.312C342.852 322.778 318.742 321.468 296 319.91C261.547 317.551 226.567 319 192 319L192 220C217.365 220 242.707 220.147 268 219.039C290.357 218.06 313.529 216.99 334 206.73C339.579 203.934 345.34 200.319 349.711 195.826C379.635 165.071 342.764 132.957 313 124.427C273.071 112.984 227.076 119.307 190 137.258C179.779 142.207 169.829 148.14 161 155.31C157.533 158.125 152.197 165.158 147.576 165.608C143.798 165.976 138.398 162.309 135 160.85L106 148.281C71.5653 133.424 36.0256 113.299 0 103z"/>
<path style="fill:#ababab; stroke:none;" d="M548.333 103.667L548.667 104.333L548.333 103.667z"/>
<path style="fill:#7f7f7f; stroke:none;" d="M13 109C22.5975 111.744 31.8335 116.764 41 120.719C46.2576 122.988 50.6959 126.024 55 121C46.1235 117.358 20.422 100.314 13 109z"/>
<path style="fill:#ababab; stroke:none;" d="M549.333 105.667L549.667 106.333L549.333 105.667M550 107L398 248.83L346 297.004L326 318C339.725 318.589 353.291 323.097 366 328L364 333C373.762 337.086 382.651 343.746 388 353L394 352C390.633 344.883 385.858 338.965 379 335L379 334L427 290.09L520 203.91L561 166C557.049 179.002 554.311 190.411 546.48 202C540.296 211.153 531.311 218.04 525 227C531.259 222.591 536.066 216.641 541.17 211C546.335 205.291 553.78 200.371 557.926 193.91C568.023 178.179 566.756 158.609 566 141L562 144C558.875 131.922 557.749 117.239 550 107z"/>
<path style="fill:#919191; stroke:none;" d="M42.6667 115.333L43.3333 115.667L42.6667 115.333M44.6667 116.333L45.3333 116.667L44.6667 116.333M46.6667 117.333L47.3333 117.667L46.6667 117.333M49 118L50 119L49 118M51 119L52 120L51 119M53.6667 120.333L54.3333 120.667L53.6667 120.333M52 125C59.3339 129.174 71.7654 136.787 80 133C74.231 128.22 57.8077 118.221 52 125z"/>
<path style="fill:#7f7f7f; stroke:none;" d="M326 130C337.857 134.936 349.453 142.673 356 154C361.623 150.858 357.963 145.954 354.535 142.17C349.19 136.267 333.359 121.907 326 130z"/>
<path style="fill:#cdcdcd; stroke:none;" d="M379 334L379 335C384.709 339.65 389.482 344.535 393.124 351C395.909 355.942 397.68 361.403 398.561 367C405.864 413.394 347.38 430.609 312 434.845C302.384 435.996 292.688 437 283 437C278.035 437 271.383 435.836 267 438.603C258.513 443.962 251.436 453.102 244 459.83C218.371 483.021 194.474 510.067 167 531C171.815 534.346 179.272 534.755 185 535.75C198.29 538.059 211.628 539.685 225 541.286C247.226 543.945 269.613 545 292 545C299.641 545 310.792 547.054 318 544.397C324.446 542.02 331.148 533.783 336 528.996C346.406 518.73 357.533 509.221 368 499.015C401.823 466.034 436.968 433.868 472 402.17C495.597 380.818 519.215 359.233 542 337.015C547.522 331.63 553.297 326.367 558.999 321.17C561.001 319.345 564.793 317.072 564.793 313.985C564.793 307.498 551.62 299.622 547 296.13C526.487 280.625 502.827 270.242 479 261L479 260C517.576 241.751 551.04 207.356 561 166L545 179.576L505 216.91L379 334z"/>
<path style="fill:#ababab; stroke:none;" d="M362 183L363 184L362 183M331 213C344.082 207.554 358.317 198.608 362 184C351.851 188.733 337.482 203.798 331 213z"/>
<path style="fill:#919191; stroke:none;" d="M361.333 186.667L361.667 187.333L361.333 186.667M360 189L361 190L360 189M359 190L360 191L359 190M358 192L359 193L358 192M356 195L357 196L356 195M355 196L356 197L355 196M354 197L355 198L354 197M486 263C492.242 266.552 507.42 276.288 513 270L490 259C513.893 247.697 545.38 221.607 556 197L530 221.985L486 263M353 198L354 199L353 198M352 199L353 200L352 199M351 200L352 201L351 200M350 201L351 202L350 201M349 202L350 203L349 202M339 203L340 204L339 203M348 203L349 204L348 203M338 204L339 205L338 204M227 224L230 220L204 220C200.899 220 196.029 219.178 193.603 221.603C188.339 226.868 192 248.732 192 256C200.4 249.6 197 233.617 197 224L231 225C221.531 234.469 204.091 245.186 198.028 257.015C192.468 267.861 197.987 287.93 196.941 300C196.346 306.872 192.001 311.51 192 319C201.621 319 216.227 322.088 223 314L197 314C197.337 303.599 209.803 295.682 217 289.17C233.83 273.941 250.391 258.381 267 242.91C273.382 236.966 280.767 226.982 289 223.738C306.333 216.911 325.753 222.443 338 205L316 213.105L291 218.018L280 223.697L227 224M345 205L346 206L345 205M343 206L344 207L343 206M342 207L343 208L342 207M340 208L341 209L340 208M338 209L339 210L338 209M336.667 210.333L337.333 210.667L336.667 210.333M334.667 211.333L335.333 211.667L334.667 211.333M332.667 212.333L333.333 212.667L332.667 212.333z"/>
<path style="fill:#7f7f7f; stroke:none;" d="M227 224C241.14 224 254.899 225.055 269 224.09C277.089 223.536 283.318 224.952 289 218C274.722 219.127 260.342 220 246 220C239.306 220 231.665 218.399 227 224z"/>
<path style="fill:#ababab; stroke:none;" d="M192 220L192 222L194 220L192 220M197 224L197 257C208.839 248.905 222.731 236.738 231 225L197 224M523 227L524 228L523 227M522 228L523 229L522 228M521 229L522 230L521 229M520 230L521 231L520 230M519 231L520 232L519 231M518 232L519 233L518 232M517 233L518 234L517 233M516 234L517 235L516 234M514.667 235.333L515.333 235.667L514.667 235.333M513 236L514 237L513 236M512 237L513 238L512 237M510.667 238.333L511.333 238.667L510.667 238.333M509 239L510 240L509 239M508 240L509 241L508 240M479 260L479 261L487 264L508 241L479 260z"/>
<path style="fill:#7f7f7f; stroke:none;" d="M196 252C190.945 257.977 192 264.559 192 272L192 309C201.663 301.639 197 277.261 197 266C197 261.464 197.769 256.215 196 252z"/>
<path style="fill:#ababab; stroke:none;" d="M487.667 264.333L488.333 264.667L487.667 264.333M490 265L491 266L490 265M492.667 266.333L493.333 266.667L492.667 266.333M495 267L496 268L495 267M497 268L498 269L497 268M500 269L501 270L500 269M502 270L503 271L502 270z"/>
<path style="fill:#7f7f7f; stroke:none;" d="M510 274L544 294L545 294L548 290C540.585 285.428 517.431 265.626 510 274z"/>
<path style="fill:#ababab; stroke:none;" d="M504 271L505 272L504 271M506 272L507 273L506 272z"/>
<path style="fill:#919191; stroke:none;" d="M511 274L512 275L511 274z"/>
<path style="fill:#ababab; stroke:none;" d="M512 275L513 276L512 275z"/>
<path style="fill:#919191; stroke:none;" d="M513 275L514 276L513 275z"/>
<path style="fill:#ababab; stroke:none;" d="M514 276L515 277L514 276z"/>
<path style="fill:#919191; stroke:none;" d="M515 276L516 277L515 276z"/>
<path style="fill:#ababab; stroke:none;" d="M516 277L517 278L516 277z"/>
<path style="fill:#919191; stroke:none;" d="M517 277L518 278L517 277z"/>
<path style="fill:#ababab; stroke:none;" d="M518 278L519 279L518 278z"/>
<path style="fill:#919191; stroke:none;" d="M519 278L520 279L519 278z"/>
<path style="fill:#ababab; stroke:none;" d="M520 279L521 280L520 279M522 280L523 281L522 280z"/>
<path style="fill:#919191; stroke:none;" d="M524 281L525 282L524 281z"/>
<path style="fill:#ababab; stroke:none;" d="M527 283L528 284L527 283M529 284L530 285L529 284z"/>
<path style="fill:#919191; stroke:none;" d="M531 285L532 286L531 285z"/>
<path style="fill:#ababab; stroke:none;" d="M532 286L533 287L532 286z"/>
<path style="fill:#919191; stroke:none;" d="M534 287L535 288L534 287z"/>
<path style="fill:#ababab; stroke:none;" d="M535 288L536 289L535 288z"/>
<path style="fill:#919191; stroke:none;" d="M536 288L537 289L536 288z"/>
<path style="fill:#ababab; stroke:none;" d="M537 289L538 290L537 289z"/>
<path style="fill:#919191; stroke:none;" d="M539 290L540 291L539 290z"/>
<path style="fill:#ababab; stroke:none;" d="M540 291L541 292L540 291z"/>
<path style="fill:#919191; stroke:none;" d="M545 295C550.811 299.178 559.698 310.347 567 307C563.626 302.249 549.816 286.516 545 295M542 292L543 293L542 292z"/>
<path style="fill:#ababab; stroke:none;" d="M543 293L544 294L543 293M544 294L545 295L544 294M547 296L548 297L547 296M548 297L549 298L548 297M551 299L552 300L551 299M552 300L553 301L552 300M553 301L554 302L553 301M556 303L557 304L556 303M557 304L558 305L557 304M558 305L559 306L558 305M559 306L560 307L559 306M560 307L561 308L560 307M562 309C566.616 317.336 556.683 322.529 551 327.961C534.96 343.292 518.749 358.875 502 373.424C456.691 412.784 414.509 455.896 370 496.17C358.537 506.542 346.983 517.123 336 528C330.882 533.069 323.821 541.882 317 544.397C308.503 547.529 295.034 545 286 545L286 546L313 546L310 550C325.125 550 344.54 552.252 359 547.833C363.129 546.572 365.351 542.581 370 542C377.968 541.004 392.806 541.877 399.667 537.5C417.411 526.18 432.325 506.151 448 492C475.564 467.116 503.732 442.268 530 416C545.151 400.849 561.514 386.84 577 372C579.739 369.375 591.526 357.447 592 361C593.987 354.458 588.576 346.067 586.292 340.039C585.029 336.703 586.856 334.222 586.158 330.985C584.209 321.938 571.561 306.327 562 309M561 308L562 309L561 308M218 318L218 319L254 319C260.813 319 266.509 319.895 271 314C255.805 314 230.821 309.198 218 318z"/>
<path style="fill:#cdcdcd; stroke:none;" d="M267 319C292.021 319 317.504 320.036 342 325.651C348.235 327.08 362.127 334.847 366 328C344.614 316.731 315.702 315.114 292 314.999C283.23 314.957 273.155 310.921 267 319z"/>
<path style="fill:#ababab; stroke:none;" d="M284 314L284 315L298 315L284 314M305 315L305 316L312 316L305 315M318 316L318 317L322 317L318 316z"/>
<path style="fill:#cdcdcd; stroke:none;" d="M587 333C583.437 338.776 587.836 344.194 589.946 350C593.688 360.296 595.012 371.112 595.406 382C596.367 408.591 585.53 430.076 572 452C598.222 433.529 603.31 395.734 599.13 366C597.677 355.664 594.597 340.581 587 333z"/>
<path style="fill:#919191; stroke:none;" d="M393 383C403.43 375.869 398.03 360.448 393 351C387.487 354.127 394.839 375.277 393 383z"/>
<path style="fill:#ababab; stroke:none;" d="M394 353L395 354L394 353M395.333 355.667L395.667 356.333L395.333 355.667M396 358L397 359L396 358z"/>
<path style="fill:#919191; stroke:none;" d="M591 358C546.85 402.15 499.135 442.819 454 485.961C436.835 502.367 413.851 517.743 400 537L445 526.975L478 516C480.67 506.716 497.03 496.803 504 490.015C523.561 470.964 544.017 452.703 564 434.09C572.679 426.005 585.702 417.655 592.012 407.576C598.456 397.282 597.174 368.109 591 358z"/>
<path style="fill:#ababab; stroke:none;" d="M397.333 361.667L397.667 362.333L397.333 361.667M593 362L593 365L594 365L593 362M398 366L398 369L399 369L398 366M594 369L594 372L595 372L594 369z"/>
<path style="fill:#919191; stroke:none;" d="M7 464L7 466L18 473L18 474L15 478C21.882 481.256 33.3862 493.72 40 486L19 474C45.8158 447.184 72.9108 423.664 105 403.576C111.998 399.194 127.237 385.014 135.576 385.438C139.085 385.616 143.085 390.178 146 392C140.457 367.943 120.133 387.244 107 395.424C92.2231 404.627 80.8276 416.124 67 426.392C48.5893 440.063 27.2345 453.228 7 464z"/>
<path style="fill:#7f7f7f; stroke:none;" d="M397 379L378 405.699L349 426C365.153 422.261 383.068 412.284 391.934 398C395.08 392.932 399.333 384.978 397 379z"/>
<path style="fill:#ababab; stroke:none;" d="M398 379L398 383L399 383L398 379M595 381L595 385L596 385L595 381z"/>
<path style="fill:#7f7f7f; stroke:none;" d="M19 474C31.4635 481.656 43.8393 488.891 57 495.258C61.161 497.272 67.1671 501.661 72 501.057C81.4644 499.875 94.2835 482.461 101 476.039C124.344 453.719 149.128 432.809 172 410C165.497 402.408 154.068 397.675 146 391.625C143.018 389.389 139.034 384.901 135 385.132C125.569 385.672 111.921 398.617 104 403.576C82.9774 416.736 65.5557 430.348 47 446.715C37.5887 455.015 26.2415 463.72 19 474z"/>
<path style="fill:#919191; stroke:none;" d="M397 384L398 385L397 384z"/>
<path style="fill:#ababab; stroke:none;" d="M397.333 385.667L397.667 386.333L397.333 385.667M173 409L176 404C168.499 400.86 161.708 396.207 155 391.656C152.956 390.269 149.127 386.485 146.377 387.457C142.327 388.887 148.807 393.941 150.005 394.844C157.119 400.207 164.925 405.23 173 409z"/>
<path style="fill:#919191; stroke:none;" d="M396 388L397 389L396 388z"/>
<path style="fill:#ababab; stroke:none;" d="M396 389L397 390L396 389z"/>
<path style="fill:#919191; stroke:none;" d="M395 391L396 392L395 391M148 393L149 394L148 393M394 393L395 394L394 393M149 394L150 395L149 394M393 395L394 396L393 395z"/>
<path style="fill:#ababab; stroke:none;" d="M594 395L594 399L595 399L594 395z"/>
<path style="fill:#919191; stroke:none;" d="M152 396L153 397L152 396z"/>
<path style="fill:#ababab; stroke:none;" d="M393 396L394 397L393 396z"/>
<path style="fill:#919191; stroke:none;" d="M392 397L393 398L392 397M155 398L156 399L155 398M391 398L392 399L391 398z"/>
<path style="fill:#fefefe; stroke:none;" d="M599 398C597.53 432.245 572.455 462.267 547 482.6C490.821 527.476 408.132 549 337 549L337 550L600 550L600 444C600 431.009 604.007 409.932 599 398z"/>
<path style="fill:#919191; stroke:none;" d="M158 400L159 401L158 400z"/>
<path style="fill:#ababab; stroke:none;" d="M390 400L391 401L390 400z"/>
<path style="fill:#919191; stroke:none;" d="M389 401L390 402L389 401M161 402L162 403L161 402z"/>
<path style="fill:#ababab; stroke:none;" d="M593.333 403.667L593.667 404.333L593.333 403.667z"/>
<path style="fill:#919191; stroke:none;" d="M164 404L165 405L164 404M166 405L167 406L166 405z"/>
<path style="fill:#cdcdcd; stroke:none;" d="M173 409C193.7 417.874 212.541 428.153 235 432.389C242.343 433.774 252.598 437.485 258 431C235.521 425.633 214.286 422.759 193 412.78C187.647 410.271 176.833 402.141 173 409z"/>
<path style="fill:#919191; stroke:none;" d="M168 406L169 407L168 406M171 408L172 409L171 408z"/>
<path style="fill:#7f7f7f; stroke:none;" d="M591 408L512 481.91L477 515C513.742 506.293 554.695 476.843 575.656 446C581.675 437.143 593.573 419.261 591 408z"/>
<path style="fill:#ababab; stroke:none;" d="M592.333 408.667L592.667 409.333L592.333 408.667z"/>
<path style="fill:#7f7f7f; stroke:none;" d="M85 409L86 410L85 409z"/>
<path style="fill:#919191; stroke:none;" d="M72 503C82.0098 506.407 99.3363 517.945 110 515.932C118.705 514.289 128.527 499.995 135 494.285C149.348 481.63 162.816 468.004 177 455.17C187.356 445.8 199.931 436.455 208 425C199.322 422.064 191.3 417.79 183 413.972C180.104 412.64 176.347 409.514 173 409.997C164.574 411.212 154.241 426.154 148 431.576C129.848 447.345 112.216 464.198 95 480.985C87.5131 488.286 78.3577 494.687 72 503z"/>
<path style="fill:#ababab; stroke:none;" d="M174 409L175 410L174 409z"/>
<path style="fill:#919191; stroke:none;" d="M381 409L382 410L381 409z"/>
<path style="fill:#7f7f7f; stroke:none;" d="M18 474L18 473L7 466L7 464C17.2464 460.249 26.7779 452.494 36 446.681C52.6629 436.179 73.3994 426.467 85 410C64.4627 417.784 44.7032 434.601 26 446.192C18.9475 450.563 6.48104 455.544 1.62269 462.328C-3.24799 469.129 12.6636 477.248 18 474z"/>
<path style="fill:#ababab; stroke:none;" d="M176 410L177 411L176 410z"/>
<path style="fill:#919191; stroke:none;" d="M380 410L381 411L380 410M591.333 410.667L591.667 411.333L591.333 410.667z"/>
<path style="fill:#ababab; stroke:none;" d="M178 411L179 412L178 411M379 411L380 412L379 411M179 412L180 413L179 412M591 412L592 413L591 412M181.667 413.333L182.333 413.667L181.667 413.333z"/>
<path style="fill:#919191; stroke:none;" d="M376 413L377 414L376 413z"/>
<path style="fill:#ababab; stroke:none;" d="M184 414L185 415L184 414M375 414L376 415L375 414z"/>
<path style="fill:#919191; stroke:none;" d="M590.333 414.667L590.667 415.333L590.333 414.667z"/>
<path style="fill:#ababab; stroke:none;" d="M186 415L187 416L186 415M373 415L374 416L373 415M188 416L189 417L188 416z"/>
<path style="fill:#919191; stroke:none;" d="M371 416L372 417L371 416z"/>
<path style="fill:#ababab; stroke:none;" d="M590 416L591 417L590 416M190 417L191 418L190 417z"/>
<path style="fill:#919191; stroke:none;" d="M369 417L370 418L369 417z"/>
<path style="fill:#ababab; stroke:none;" d="M370 417L371 418L370 417M192 418L193 419L192 418M368 418L369 419L368 418z"/>
<path style="fill:#919191; stroke:none;" d="M589 418L590 419L589 418z"/>
<path style="fill:#ababab; stroke:none;" d="M194 419L195 420L194 419z"/>
<path style="fill:#919191; stroke:none;" d="M354 419L355 420L354 419z"/>
<path style="fill:#ababab; stroke:none;" d="M366 419L367 420L366 419M589 419L590 420L589 419M196 420L197 421L196 420z"/>
<path style="fill:#919191; stroke:none;" d="M303 435L349 427L354 420C342.936 422.56 332.232 426.498 321 428.537C314.091 429.791 307.621 428.934 303 435M363 420L364 421L363 420z"/>
<path style="fill:#ababab; stroke:none;" d="M364 420L365 421L364 420z"/>
<path style="fill:#919191; stroke:none;" d="M588 420L589 421L588 420z"/>
<path style="fill:#ababab; stroke:none;" d="M198.667 421.333L199.333 421.667L198.667 421.333z"/>
<path style="fill:#919191; stroke:none;" d="M361 421L362 422L361 421z"/>
<path style="fill:#ababab; stroke:none;" d="M362 421L363 422L362 421M588.333 421.667L588.667 422.333L588.333 421.667M201 422L202 423L201 422z"/>
<path style="fill:#919191; stroke:none;" d="M359 422L360 423L359 422z"/>
<path style="fill:#ababab; stroke:none;" d="M203.667 423.333L204.333 423.667L203.667 423.333M357 423L358 424L357 423z"/>
<path style="fill:#919191; stroke:none;" d="M587 423L588 424L587 423z"/>
<path style="fill:#ababab; stroke:none;" d="M206 424L207 425L206 424z"/>
<path style="fill:#919191; stroke:none;" d="M354 424L355 425L354 424z"/>
<path style="fill:#ababab; stroke:none;" d="M355 424L356 425L355 424M587 424L588 425L587 424M111 518L153 530L150 534C164.748 537.042 181.884 544.086 196 538L196 537L167 531C177.523 525.541 186.341 514.155 195 506.09C211.945 490.306 229.055 474.694 246 458.91C252.91 452.474 260.532 442.262 269 438.028C277.665 433.695 297.194 436 307 436L307 435L303 435L306 431C291.651 431 276.186 429.853 262 431.059C257.633 431.43 254.444 434.743 250 434.516C241.005 434.056 231.63 431.742 223 429.29C219.061 428.171 213.099 425.101 209 425.929C200.487 427.649 189.237 442.997 183 448.961C167.924 463.375 152.642 477.918 137 491.715C128.689 499.045 115.718 507.883 111 518z"/>
<path style="fill:#919191; stroke:none;" d="M351 425L352 426L351 425z"/>
<path style="fill:#ababab; stroke:none;" d="M352 425L353 426L352 425z"/>
<path style="fill:#7f7f7f; stroke:none;" d="M347 426L348 427L347 426z"/>
<path style="fill:#ababab; stroke:none;" d="M349 426L350 427L349 426M586.333 426.667L586.667 427.333L586.333 426.667M346 427L347 428L346 427M343 428L344 429L343 428z"/>
<path style="fill:#919191; stroke:none;" d="M585 428L586 429L585 428z"/>
<path style="fill:#ababab; stroke:none;" d="M339.667 429.333L340.333 429.667L339.667 429.333M585 429L586 430L585 429M306 430L307 431L306 430M334.667 430.333L335.333 430.667L334.667 430.333z"/>
<path style="fill:#919191; stroke:none;" d="M584 430L585 431L584 430z"/>
<path style="fill:#ababab; stroke:none;" d="M330.667 431.333L331.333 431.667L330.667 431.333M584 431L585 432L584 431M325.667 432.333L326.333 432.667L325.667 432.333z"/>
<path style="fill:#919191; stroke:none;" d="M583 432L584 433L583 432z"/>
<path style="fill:#ababab; stroke:none;" d="M319 433L319 434L323 434L319 433M583 433L584 434L583 433M311 434L311 435L315 435L311 434z"/>
<path style="fill:#919191; stroke:none;" d="M582 434L583 435L582 434z"/>
<path style="fill:#ababab; stroke:none;" d="M582 435L583 436L582 435z"/>
<path style="fill:#919191; stroke:none;" d="M581 436L582 437L581 436z"/>
<path style="fill:#ababab; stroke:none;" d="M581 437L582 438L581 437M580 438L581 439L580 438M585 439L586 440L585 439M579 440L580 441L579 440M584 440L552 471.91L537 486L534 488L531 488L522 500C540.921 491.049 558.039 475.47 571.826 460C575.964 455.358 584.616 446.555 584 440z"/>
<path style="fill:#919191; stroke:none;" d="M578 441L579 442L578 441z"/>
<path style="fill:#ababab; stroke:none;" d="M578 442L579 443L578 442M577 443L578 444L577 443z"/>
<path style="fill:#919191; stroke:none;" d="M576 444L577 445L576 444z"/>
<path style="fill:#ababab; stroke:none;" d="M576 445L577 446L576 445M575 446L576 447L575 446z"/>
<path style="fill:#919191; stroke:none;" d="M574 447L575 448L574 447z"/>
<path style="fill:#ababab; stroke:none;" d="M574 448L575 449L574 448M573 449L574 450L573 449M572 450L573 451L572 450z"/>
<path style="fill:#919191; stroke:none;" d="M571 451L572 452L571 451M567 456L568 457L567 456M566 457L567 458L566 457M565 458L566 459L565 458z"/>
<path style="fill:#fefefe; stroke:none;" d="M0 467L0 550L263 550L263 549C197.42 549 126.546 533.033 67 505.691C43.2103 494.768 22.6699 479.621 0 467z"/>
<path style="fill:#919191; stroke:none;" d="M552 471L553 472L552 471M551 472L552 473L551 472M550 473L551 474L550 473M549 474L550 475L549 474M545 477L546 478L545 477M544 478L545 479L544 478M540 481L541 482L540 481M537 483L538 484L537 483M536 484L537 485L536 484z"/>
<path style="fill:#cdcdcd; stroke:none;" d="M536 485L537 486L536 485z"/>
<path style="fill:#919191; stroke:none;" d="M533 486L534 487L533 486z"/>
<path style="fill:#ababab; stroke:none;" d="M37 491C44.8241 495.117 64.9549 510.369 72 502C64.9326 499.594 41.3189 483.386 37 491z"/>
<path style="fill:#919191; stroke:none;" d="M41 487L42 488L41 487z"/>
<path style="fill:#cdcdcd; stroke:none;" d="M533 487L534 488L533 487z"/>
<path style="fill:#919191; stroke:none;" d="M43 488L44 489L43 488M530 488L531 489L530 488z"/>
<path style="fill:#cdcdcd; stroke:none;" d="M532 488L533 489L532 488z"/>
<path style="fill:#919191; stroke:none;" d="M45 489L46 490L45 489z"/>
<path style="fill:#ababab; stroke:none;" d="M529 489L528 491L529 489z"/>
<path style="fill:#cdcdcd; stroke:none;" d="M360 548C403.499 544.567 447.905 534.57 488 517.281C503.745 510.491 521.818 503.455 532 489C517.645 494.255 504.074 504.248 490 510.691C466.259 521.561 440.588 529.401 415 534.551C403.041 536.958 391.068 539.005 379 540.729C371.695 541.773 364.868 541.802 360 548z"/>
<path style="fill:#919191; stroke:none;" d="M46 490L47 491L46 490M527 490L528 491L527 490M48 491L49 492L48 491M525 491L526 492L525 491z"/>
<path style="fill:#ababab; stroke:none;" d="M526 491L527 492L526 491z"/>
<path style="fill:#919191; stroke:none;" d="M50 492L51 493L50 492M524 492L525 493L524 492M53 493L54 494L53 493M522 493L523 494L522 493z"/>
<path style="fill:#ababab; stroke:none;" d="M523 493L524 494L523 493z"/>
<path style="fill:#919191; stroke:none;" d="M55 494L56 495L55 494z"/>
<path style="fill:#ababab; stroke:none;" d="M521 494L522 495L521 494z"/>
<path style="fill:#919191; stroke:none;" d="M57 495L58 496L57 495M519 495L520 496L519 495z"/>
<path style="fill:#ababab; stroke:none;" d="M520 495L521 496L520 495z"/>
<path style="fill:#919191; stroke:none;" d="M59 496L60 497L59 496M517 496L518 497L517 496z"/>
<path style="fill:#ababab; stroke:none;" d="M518 496L519 497L518 496z"/>
<path style="fill:#919191; stroke:none;" d="M61 497L62 498L61 497M515 497L516 498L515 497z"/>
<path style="fill:#ababab; stroke:none;" d="M516 497L517 498L516 497z"/>
<path style="fill:#919191; stroke:none;" d="M63 498L64 499L63 498z"/>
<path style="fill:#ababab; stroke:none;" d="M514 498L515 499L514 498z"/>
<path style="fill:#919191; stroke:none;" d="M65 499L66 500L65 499M512 499L513 500L512 499z"/>
<path style="fill:#ababab; stroke:none;" d="M513 499L514 500L513 499z"/>
<path style="fill:#919191; stroke:none;" d="M67.6667 500.333L68.3333 500.667L67.6667 500.333M510 500L511 501L510 500z"/>
<path style="fill:#ababab; stroke:none;" d="M511 500L512 501L511 500z"/>
<path style="fill:#919191; stroke:none;" d="M70 501L71 502L70 501M508 501L509 502L508 501z"/>
<path style="fill:#ababab; stroke:none;" d="M509 501L510 502L509 501z"/>
<path style="fill:#919191; stroke:none;" d="M506 502L507 503L506 502z"/>
<path style="fill:#ababab; stroke:none;" d="M507 502L508 503L507 502z"/>
<path style="fill:#cdcdcd; stroke:none;" d="M68 507C88.8988 513.018 108.924 522.66 130 528.709C136.709 530.635 147.697 536.039 153 530C133.089 521.433 110.458 517.677 90 510.05C83.4483 507.608 73.4824 500.6 68 507z"/>
<path style="fill:#ababab; stroke:none;" d="M73 503L74 504L73 503z"/>
<path style="fill:#919191; stroke:none;" d="M504 503L505 504L504 503z"/>
<path style="fill:#ababab; stroke:none;" d="M505 503L506 504L505 503M75.6667 504.333L76.3333 504.667L75.6667 504.333z"/>
<path style="fill:#919191; stroke:none;" d="M502 504L503 505L502 504z"/>
<path style="fill:#ababab; stroke:none;" d="M503 504L504 505L503 504M78 505L79 506L78 505z"/>
<path style="fill:#919191; stroke:none;" d="M500 505L501 506L500 505z"/>
<path style="fill:#ababab; stroke:none;" d="M501 505L502 506L501 505M80 506L81 507L80 506z"/>
<path style="fill:#919191; stroke:none;" d="M498 506L499 507L498 506z"/>
<path style="fill:#ababab; stroke:none;" d="M83 507L84 508L83 507z"/>
<path style="fill:#919191; stroke:none;" d="M496 507L497 508L496 507z"/>
<path style="fill:#ababab; stroke:none;" d="M85.6667 508.333L86.3333 508.667L85.6667 508.333z"/>
<path style="fill:#919191; stroke:none;" d="M494 508L495 509L494 508z"/>
<path style="fill:#ababab; stroke:none;" d="M88 509L89 510L88 509z"/>
<path style="fill:#919191; stroke:none;" d="M492 509L493 510L492 509z"/>
<path style="fill:#ababab; stroke:none;" d="M91 510L92 511L91 510z"/>
<path style="fill:#919191; stroke:none;" d="M489 510L490 511L489 510z"/>
<path style="fill:#ababab; stroke:none;" d="M490 510L491 511L490 510M93.6667 511.333L94.3333 511.667L93.6667 511.333z"/>
<path style="fill:#919191; stroke:none;" d="M487 511L488 512L487 511z"/>
<path style="fill:#ababab; stroke:none;" d="M488 511L489 512L488 511M96 512L97 513L96 512z"/>
<path style="fill:#919191; stroke:none;" d="M484 512L485 513L484 512z"/>
<path style="fill:#ababab; stroke:none;" d="M485 512L486 513L485 512M99 513L100 514L99 513z"/>
<path style="fill:#919191; stroke:none;" d="M482 513L483 514L482 513z"/>
<path style="fill:#ababab; stroke:none;" d="M483 513L484 514L483 513M102 514L103 515L102 514z"/>
<path style="fill:#919191; stroke:none;" d="M479 514L480 515L479 514z"/>
<path style="fill:#ababab; stroke:none;" d="M480 514L481 515L480 514M105 515L106 516L105 515z"/>
<path style="fill:#7f7f7f; stroke:none;" d="M476 515L477 516L476 515z"/>
<path style="fill:#ababab; stroke:none;" d="M478 515L479 516L478 515M108.667 516.333L109.333 516.667L108.667 516.333M475.667 516.333L476.333 516.667L475.667 516.333M473 517L474 518L473 517M471 518L472 519L471 518M468 519L469 520L468 519M465 520L466 521L465 520M462 521L463 522L462 521M459 522L460 523L459 522M456 523L457 524L456 523M452.667 524.333L453.333 524.667L452.667 524.333M449.667 525.333L450.333 525.667L449.667 525.333M446.667 526.333L447.333 526.667L446.667 526.333M443 527L444 528L443 527M439 528L440 529L439 528M435 529L436 530L435 529M431 530L432 531L431 530M427 531L428 532L427 531M423 532L424 533L423 532M419 533L420 534L419 533M413 534L413 535L416 535L413 534M408.667 535.333L409.333 535.667L408.667 535.333M402 536L402 537L405 537L402 536z"/>
<path style="fill:#919191; stroke:none;" d="M190 542C199.041 543.144 217.497 549.801 224 542C215.825 539.578 195.881 534.941 190 542z"/>
<path style="fill:#ababab; stroke:none;" d="M199 538L199 539L203 539L199 538M206 539L206 540L210 540L206 539M214 540L214 541L217 541L214 540M223 541L223 542L227 542L223 541z"/>
<path style="fill:#7f7f7f; stroke:none;" d="M221 546C234.004 547.643 246.997 547.932 260 549.17C266.424 549.781 272.403 551.519 277 546C264.446 543.011 248.952 543.461 236 542.989C229.969 542.77 225.316 540.819 221 546z"/>
<path style="fill:#919191; stroke:none;" d="M230 542L230 543L233 543L230 542z"/>
<path style="fill:#ababab; stroke:none;" d="M233 542L233 543L236 543L233 542z"/>
<path style="fill:#919191; stroke:none;" d="M242 543L242 544L246 544L242 543z"/>
<path style="fill:#ababab; stroke:none;" d="M246 543L246 544L250 544L246 543z"/>
<path style="fill:#919191; stroke:none;" d="M256 544L256 545L261 545L256 544z"/>
<path style="fill:#ababab; stroke:none;" d="M261 544L261 545L268 545L261 544z"/>
<path style="fill:#919191; stroke:none;" d="M275 545L275 546L277 547L274 550C284.014 550 306.198 554.166 313 546L275 545z"/>
</svg>
